{"glyphs":{"0":{"ha":839,"x_min":62,"x_max":777,"o":"m 777 478 q 681 107 777 241 q 419 -26 586 -26 q 156 109 250 -26 q 62 489 62 244 q 157 867 62 732 q 421 1003 252 1003 q 684 867 592 1003 q 777 478 777 731 m 416 113 q 565 207 515 113 q 615 490 615 302 q 566 769 615 673 q 422 865 517 865 q 274 770 324 865 q 224 488 224 674 q 274 210 224 307 q 416 113 323 113 z "},"1":{"ha":839,"x_min":161,"x_max":514,"o":"m 367 0 l 367 856 l 161 856 l 224 983 l 514 983 l 514 0 l 367 0 z "},"2":{"ha":839,"x_min":29,"x_max":694,"o":"m 694 129 l 694 0 l 29 0 l 400 444 q 501 591 469 528 q 533 705 533 654 q 489 822 533 779 q 370 864 446 864 q 258 822 302 864 q 208 710 214 779 l 53 710 q 142 923 53 844 q 383 1003 232 1003 q 610 929 527 1003 q 693 728 693 855 q 645 544 693 637 q 443 275 597 452 l 317 129 l 694 129 z "},"3":{"ha":839,"x_min":64,"x_max":729,"o":"m 64 265 l 218 265 l 218 257 q 265 148 218 189 q 392 107 312 107 q 531 152 482 107 q 581 282 581 197 q 530 416 581 371 q 379 461 479 461 q 364 460 374 461 q 349 460 354 460 l 349 590 q 363 589 353 590 q 378 589 373 589 q 511 626 466 589 q 555 734 555 663 q 515 836 555 798 q 407 873 475 873 q 293 839 334 873 q 250 741 252 804 l 104 741 q 191 935 111 867 q 411 1003 270 1003 q 627 932 547 1003 q 707 739 707 861 q 662 589 707 648 q 536 518 616 530 q 680 435 631 501 q 729 261 729 370 q 636 51 729 129 q 386 -26 544 -26 q 155 53 243 -26 q 64 265 68 132 z "},"4":{"ha":839,"x_min":18,"x_max":762,"o":"m 498 671 l 245 314 l 494 314 l 494 572 q 495 618 494 593 q 498 671 496 643 m 494 0 l 494 201 l 18 201 l 596 1003 l 642 1003 l 642 314 l 762 314 l 762 201 l 642 201 l 642 0 l 494 0 z "},"5":{"ha":839,"x_min":53,"x_max":745,"o":"m 160 237 q 249 140 195 174 q 370 106 303 106 q 529 169 468 106 q 590 334 590 231 q 526 494 590 432 q 358 555 462 555 q 242 534 296 555 q 149 471 189 513 l 109 479 l 232 983 l 701 983 l 701 852 l 329 852 l 271 633 q 349 659 311 650 q 425 667 387 667 q 656 576 567 667 q 745 339 745 485 q 641 73 745 172 q 363 -26 537 -26 q 184 9 260 -26 q 53 119 108 45 l 160 237 z "},"6":{"ha":839,"x_min":77,"x_max":755,"o":"m 231 304 q 280 161 231 216 q 408 107 330 107 q 548 160 497 107 q 599 304 599 213 q 549 450 599 397 q 410 503 498 503 q 280 448 330 503 q 231 304 231 393 m 321 603 q 386 627 354 618 q 450 635 418 635 q 669 545 583 635 q 755 314 755 454 q 659 67 755 161 q 404 -26 562 -26 q 166 65 256 -26 q 77 306 77 157 q 294 770 77 465 l 311 794 l 485 1040 l 608 978 l 321 603 z "},"7":{"ha":839,"x_min":102,"x_max":786,"o":"m 155 21 l 561 856 l 102 856 l 102 983 l 786 983 l 286 -37 l 155 21 z "},"8":{"ha":839,"x_min":78,"x_max":760,"o":"m 254 525 q 146 608 180 557 q 111 737 111 660 q 195 930 111 857 q 418 1003 279 1003 q 643 929 559 1003 q 726 730 726 854 q 690 605 726 657 q 583 525 654 552 q 713 429 666 498 q 760 267 760 360 q 669 52 760 130 q 418 -26 578 -26 q 169 52 260 -26 q 78 264 78 130 q 124 430 78 361 q 254 525 170 498 m 421 872 q 310 835 351 872 q 269 734 269 798 q 309 637 269 672 q 418 602 349 602 q 529 636 489 602 q 568 734 568 671 q 529 836 568 799 q 421 872 490 872 m 418 106 q 555 152 505 106 q 604 278 604 197 q 555 406 604 359 q 418 452 505 452 q 283 405 332 452 q 233 278 233 358 q 282 152 233 197 q 418 106 331 106 z "},"9":{"ha":839,"x_min":71,"x_max":751,"o":"m 596 673 q 547 817 596 762 q 419 871 498 871 q 279 818 330 871 q 228 673 228 765 q 278 527 228 580 q 416 473 328 473 q 546 529 496 473 q 596 673 596 585 m 505 374 q 442 351 474 358 q 376 343 410 343 q 157 433 243 343 q 71 663 71 522 q 167 909 71 816 q 422 1003 264 1003 q 661 912 570 1003 q 751 672 751 821 q 534 208 751 513 l 517 183 l 342 -62 l 220 0 l 505 374 z "},"Ď":{"ha":833,"x_min":69,"x_max":764,"o":"m 69 -245 l 69 979 l 764 979 l 764 -245 l 69 -245 m 147 -168 l 686 -168 l 686 901 l 147 901 l 147 -168 z "}," ":{"ha":419,"x_min":0,"x_max":0,"o":""},"!":{"ha":457,"x_min":139,"x_max":317,"o":"m 151 1015 l 306 1015 l 306 228 l 151 228 l 151 1015 m 139 62 q 165 125 139 99 q 228 151 191 151 q 291 125 265 151 q 317 62 317 100 q 291 0 317 26 q 228 -26 265 -26 q 165 0 191 -26 q 139 62 139 26 z "},"\"":{"ha":436,"x_min":58,"x_max":379,"o":"m 268 974 l 379 974 l 379 596 l 268 596 l 268 974 m 58 974 l 170 974 l 170 596 l 58 596 l 58 974 z "},"#":{"ha":1068,"x_min":47,"x_max":1021,"o":"m 481 578 l 419 406 l 593 406 l 654 578 l 481 578 m 498 990 l 628 990 l 524 694 l 693 694 l 799 990 l 928 990 l 823 694 l 1021 694 l 981 578 l 782 578 l 721 407 l 930 407 l 889 290 l 681 290 l 575 -4 l 446 -4 l 551 290 l 380 290 l 273 -4 l 144 -4 l 250 290 l 47 290 l 89 407 l 290 407 l 351 578 l 138 578 l 179 694 l 393 694 l 498 990 z "},"$":{"ha":839,"x_min":93,"x_max":736,"o":"m 93 215 l 221 272 q 278 181 237 214 q 385 142 319 149 l 385 452 q 182 577 245 509 q 119 737 119 645 q 190 915 119 845 q 385 1000 260 985 l 385 1076 l 456 1076 l 456 999 q 615 951 553 990 q 704 842 677 911 l 579 779 q 526 836 556 815 q 456 864 496 857 l 456 591 q 679 450 622 513 q 736 292 736 386 q 663 93 736 169 q 456 1 590 18 l 456 -114 l 385 -114 l 385 -1 q 191 61 264 7 q 93 215 117 115 m 385 860 q 313 818 335 845 q 290 747 290 791 q 313 674 290 705 q 385 616 335 643 l 385 860 m 456 146 q 541 195 511 160 q 570 282 570 230 q 543 360 570 327 q 456 422 515 393 l 456 146 z "},"%":{"ha":1100,"x_min":39,"x_max":1063,"o":"m 839 54 q 915 100 890 54 q 940 236 940 145 q 915 370 940 323 q 842 416 889 416 q 766 371 791 416 q 741 235 741 325 q 766 101 741 148 q 839 54 791 54 m 619 236 q 678 428 619 359 q 842 497 737 497 q 1005 429 947 497 q 1063 236 1063 361 q 1004 43 1063 113 q 840 -26 945 -26 q 677 43 736 -26 q 619 236 619 112 m 39 742 q 98 934 39 865 q 261 1003 157 1003 q 424 935 366 1003 q 482 742 482 867 q 424 549 482 618 q 261 481 366 481 q 97 549 156 481 q 39 742 39 618 m 260 559 q 335 605 310 559 q 359 742 359 650 q 334 877 359 830 q 262 924 309 924 q 187 877 212 924 q 161 741 161 831 q 187 606 161 653 q 260 559 212 559 m 309 -26 l 215 -26 l 794 1003 l 888 1003 l 309 -26 z "},"&":{"ha":932,"x_min":41,"x_max":924,"o":"m 387 633 l 424 654 q 481 706 462 677 q 500 772 500 736 q 474 841 500 814 q 407 868 448 868 q 334 841 361 868 q 306 771 306 814 q 314 730 306 750 q 338 693 321 711 l 387 633 m 566 200 l 349 450 l 323 433 q 224 349 252 387 q 196 264 196 311 q 242 153 196 198 q 357 107 288 107 q 459 130 408 107 q 566 200 511 153 m 737 0 l 657 94 q 512 5 587 34 q 350 -24 438 -24 q 127 56 213 -24 q 41 260 41 135 q 94 416 41 345 q 262 559 147 488 l 222 603 q 172 682 189 639 q 154 768 154 724 q 225 929 154 866 q 410 991 297 991 q 587 935 522 991 q 653 782 653 878 q 607 649 653 709 q 460 530 561 589 l 667 290 q 728 358 696 320 q 794 446 759 396 l 889 345 q 829 262 862 301 q 757 189 795 223 l 924 0 l 737 0 z "},"'":{"ha":227,"x_min":58,"x_max":170,"o":"m 58 974 l 170 974 l 170 596 l 58 596 l 58 974 z "},"(":{"ha":421,"x_min":114,"x_max":386,"o":"m 275 -302 q 154 14 195 -153 q 114 366 114 180 q 154 727 114 560 q 275 1039 194 894 l 386 1006 q 278 706 313 862 q 243 367 243 549 q 278 21 243 176 q 386 -267 313 -134 l 275 -302 z "},")":{"ha":421,"x_min":31,"x_max":301,"o":"m 140 -302 l 31 -267 q 139 21 104 -134 q 174 367 174 176 q 139 706 174 549 q 31 1006 104 862 l 140 1039 q 261 727 222 894 q 301 366 301 560 q 261 14 301 180 q 140 -302 221 -153 z "},"*":{"ha":611,"x_min":72,"x_max":539,"o":"m 121 589 l 72 671 l 225 749 l 72 839 l 121 922 l 264 831 l 256 993 l 354 993 l 345 829 l 490 922 l 539 839 l 382 753 l 539 671 l 488 589 l 345 684 l 354 517 l 256 517 l 262 682 l 121 589 z "},"+":{"ha":1157,"x_min":172,"x_max":985,"o":"m 521 828 l 636 828 l 636 471 l 985 471 l 985 358 l 636 358 l 636 0 l 521 0 l 521 358 l 172 358 l 172 471 l 521 471 l 521 828 z "},",":{"ha":419,"x_min":78,"x_max":342,"o":"m 210 168 l 342 119 l 165 -244 l 78 -210 l 210 168 z "},"-":{"ha":562,"x_min":100,"x_max":463,"o":"m 100 387 l 463 387 l 463 252 l 100 252 l 100 387 z "},".":{"ha":419,"x_min":121,"x_max":298,"o":"m 121 75 q 146 139 121 113 q 210 165 172 165 q 273 139 247 165 q 298 75 298 113 q 273 13 298 39 q 210 -12 247 -12 q 146 13 172 -12 q 121 75 121 39 z "},"/":{"ha":602,"x_min":0,"x_max":602,"o":"m 486 1015 l 602 1015 l 115 -129 l 0 -129 l 486 1015 z "},":":{"ha":457,"x_min":139,"x_max":317,"o":"m 139 539 q 165 601 139 575 q 228 627 191 627 q 291 602 265 627 q 317 539 317 576 q 291 476 317 502 q 228 450 265 450 q 165 476 191 450 q 139 539 139 502 m 139 75 q 165 138 139 111 q 228 164 191 164 q 291 138 265 164 q 317 75 317 113 q 291 13 317 39 q 228 -12 265 -12 q 165 13 191 -12 q 139 75 139 39 z "},";":{"ha":457,"x_min":81,"x_max":375,"o":"m 199 539 q 224 601 199 575 q 286 627 250 627 q 350 602 324 627 q 375 539 375 576 q 349 476 375 502 q 286 450 323 450 q 224 476 250 450 q 199 539 199 502 m 214 168 l 346 119 l 170 -244 l 81 -210 l 214 168 z "},"<":{"ha":1157,"x_min":179,"x_max":978,"o":"m 978 798 l 978 672 l 345 414 l 978 155 l 978 32 l 179 359 l 179 468 l 978 798 z "},"=":{"ha":1157,"x_min":172,"x_max":985,"o":"m 172 330 l 985 330 l 985 218 l 172 218 l 172 330 m 172 611 l 985 611 l 985 497 l 172 497 l 172 611 z "},">":{"ha":1157,"x_min":179,"x_max":978,"o":"m 179 798 l 978 468 l 978 359 l 179 32 l 179 155 l 812 414 l 179 672 l 179 798 z "},"?":{"ha":755,"x_min":140,"x_max":619,"o":"m 258 757 l 142 757 q 141 769 142 761 q 140 782 140 778 q 205 952 140 888 q 378 1017 270 1017 q 554 953 488 1017 q 619 783 619 890 q 581 655 619 705 q 429 550 543 606 q 413 542 424 547 q 279 416 279 475 q 306 357 279 382 q 370 332 332 332 q 439 359 415 332 q 465 437 464 386 l 586 437 l 586 424 q 530 269 586 323 q 370 214 473 214 q 211 270 273 214 q 149 414 149 327 q 192 547 149 494 q 359 660 235 600 q 468 726 444 700 q 492 789 492 752 q 459 864 492 834 q 378 893 427 893 q 290 857 322 893 q 258 757 258 821 m 269 62 q 296 125 269 99 q 358 151 322 151 q 421 125 396 151 q 447 62 447 100 q 421 0 447 26 q 358 -26 395 -26 q 295 0 321 -26 q 269 62 269 26 z "},"@":{"ha":1389,"x_min":66,"x_max":1322,"o":"m 796 192 q 709 105 759 133 q 590 78 660 78 q 432 137 487 78 q 378 306 378 195 q 471 574 378 464 q 697 684 565 684 q 798 660 758 684 q 865 587 839 637 l 903 660 l 1007 660 l 907 262 q 905 254 906 259 q 901 229 901 235 q 919 188 901 203 q 966 172 937 172 q 1039 193 1001 172 q 1111 250 1078 214 q 1185 371 1160 302 q 1211 517 1211 439 q 1084 795 1211 688 q 753 903 958 903 q 579 882 659 903 q 433 818 499 861 q 244 621 311 741 q 178 353 178 500 q 320 14 178 141 q 699 -113 462 -113 q 918 -79 811 -113 q 1116 17 1025 -46 l 1161 -50 q 945 -165 1060 -127 q 704 -204 830 -204 q 466 -172 574 -204 q 275 -75 358 -139 q 118 112 170 5 q 66 354 66 218 q 102 567 66 466 q 205 751 137 667 q 445 936 305 873 q 757 999 585 999 q 970 968 869 999 q 1143 882 1072 937 q 1278 722 1233 812 q 1322 518 1322 631 q 1278 313 1322 408 q 1153 153 1234 218 q 1051 96 1106 115 q 937 77 996 77 q 831 104 865 77 q 796 189 796 132 l 796 192 m 836 479 q 794 568 827 536 q 711 599 762 599 q 564 512 625 599 q 503 301 503 425 q 533 199 503 235 q 621 163 564 163 q 731 208 682 163 q 799 325 781 253 l 836 479 z "},"A":{"ha":920,"x_min":-21,"x_max":940,"o":"m 323 390 l 600 390 l 498 616 q 480 666 490 638 q 461 729 471 694 q 444 668 453 696 q 425 616 435 640 l 323 390 m 770 0 l 657 256 l 264 256 l 149 0 l -21 0 l 460 1032 l 940 0 l 770 0 z "},"B":{"ha":800,"x_min":114,"x_max":750,"o":"m 272 574 l 334 574 q 497 605 449 574 q 545 711 545 637 q 500 826 545 793 q 334 859 456 859 l 272 859 l 272 574 m 272 135 l 328 135 q 454 142 412 135 q 521 165 496 149 q 567 218 551 185 q 583 292 583 252 q 564 374 583 339 q 507 429 544 410 q 455 446 484 441 q 376 452 425 452 l 328 452 l 272 452 l 272 135 m 114 0 l 114 993 l 364 993 q 523 981 471 993 q 610 943 574 970 q 681 854 656 909 q 707 733 707 800 q 670 601 707 654 q 564 526 633 547 q 700 447 650 513 q 750 282 750 382 q 729 168 750 222 q 669 75 708 113 q 568 17 629 34 q 366 0 508 0 l 114 0 z "},"C":{"ha":997,"x_min":71,"x_max":920,"o":"m 911 751 q 766 839 842 810 q 606 868 690 868 q 341 764 443 868 q 239 493 239 659 q 338 228 239 332 q 589 123 437 123 q 756 155 677 123 q 909 249 836 186 l 909 66 q 768 -3 844 20 q 602 -26 691 -26 q 391 11 488 -26 q 221 121 294 48 q 110 289 149 192 q 71 494 71 385 q 110 700 71 604 q 222 868 149 795 q 392 979 296 941 q 599 1017 488 1017 q 766 991 686 1017 q 920 914 845 966 l 911 751 z "},"D":{"ha":1028,"x_min":114,"x_max":957,"o":"m 275 146 l 411 146 q 579 161 523 146 q 676 211 635 176 q 761 331 732 259 q 789 497 789 402 q 761 664 789 592 q 676 783 732 735 q 575 833 634 819 q 392 848 517 848 l 334 848 l 275 848 l 275 146 m 114 0 l 114 993 l 332 993 q 630 971 544 993 q 782 900 717 950 q 912 731 868 834 q 957 496 957 628 q 912 261 957 363 q 782 93 868 159 q 634 21 717 43 q 375 0 551 0 l 332 0 l 114 0 z "},"E":{"ha":739,"x_min":114,"x_max":668,"o":"m 114 0 l 114 993 l 668 993 l 668 856 l 275 856 l 275 607 l 668 607 l 668 465 l 275 465 l 275 144 l 668 144 l 668 0 l 114 0 z "},"F":{"ha":729,"x_min":114,"x_max":668,"o":"m 114 0 l 114 993 l 668 993 l 668 856 l 275 856 l 275 608 l 668 608 l 668 467 l 275 467 l 275 0 l 114 0 z "},"G":{"ha":1116,"x_min":71,"x_max":1060,"o":"m 664 509 l 1057 509 q 1058 480 1057 498 q 1060 415 1060 432 q 940 90 1060 205 q 602 -26 820 -26 q 384 9 479 -26 q 216 118 288 45 q 108 287 146 190 q 71 494 71 384 q 109 702 71 607 q 222 869 147 797 q 393 978 295 941 q 602 1015 490 1015 q 811 972 719 1015 q 977 842 904 930 l 859 753 q 745 840 808 811 q 604 868 682 868 q 341 765 443 868 q 239 496 239 661 q 341 223 239 328 q 606 118 443 118 q 823 182 744 118 q 903 358 903 247 l 903 372 l 664 372 l 664 509 z "},"H":{"ha":1039,"x_min":114,"x_max":925,"o":"m 114 0 l 114 993 l 275 993 l 275 627 l 764 627 l 764 993 l 925 993 l 925 0 l 764 0 l 764 482 l 275 482 l 275 0 l 114 0 z "},"I":{"ha":396,"x_min":117,"x_max":278,"o":"m 117 0 l 117 993 l 278 993 l 278 0 l 117 0 z "},"J":{"ha":547,"x_min":3,"x_max":449,"o":"m 106 180 q 154 137 131 151 q 203 123 177 123 q 270 155 250 123 q 289 271 289 186 l 289 993 l 449 993 l 449 218 q 393 33 449 92 q 220 -26 338 -26 q 102 -1 155 -26 q 3 77 50 24 l 106 180 z "},"K":{"ha":861,"x_min":114,"x_max":876,"o":"m 114 0 l 114 993 l 275 993 l 275 582 l 632 993 l 829 993 l 436 551 l 876 0 l 668 0 l 275 507 l 275 0 l 114 0 z "},"L":{"ha":653,"x_min":114,"x_max":636,"o":"m 114 0 l 114 993 l 275 993 l 275 144 l 636 144 l 636 0 l 114 0 z "},"M":{"ha":1198,"x_min":18,"x_max":1183,"o":"m 924 490 q 915 554 921 502 q 905 626 909 597 q 888 558 899 592 q 860 489 877 524 l 600 -40 l 340 500 q 312 564 324 533 q 292 626 300 595 q 287 561 291 595 q 273 489 282 526 l 167 0 l 18 0 l 253 1035 l 546 408 q 567 359 553 393 q 600 273 581 324 q 645 382 614 316 q 657 409 653 399 l 943 1035 l 1183 0 l 1034 0 l 924 490 z "},"N":{"ha":1116,"x_min":114,"x_max":1002,"o":"m 114 0 l 114 1032 l 745 425 q 797 370 770 399 q 852 304 823 341 l 852 993 l 1002 993 l 1002 -39 l 358 579 q 308 632 332 604 q 262 690 284 660 l 262 0 l 114 0 z "},"O":{"ha":1203,"x_min":71,"x_max":1132,"o":"m 964 494 q 936 637 964 570 q 857 758 909 705 q 741 839 807 810 q 602 867 675 867 q 462 839 528 867 q 345 758 396 811 q 266 638 293 706 q 239 494 239 570 q 266 352 239 419 q 345 232 293 285 q 462 151 396 179 q 602 123 528 123 q 740 151 674 123 q 857 232 805 179 q 936 352 909 285 q 964 494 964 420 m 1132 494 q 1092 294 1132 389 q 977 126 1053 200 q 804 13 900 52 q 602 -26 707 -26 q 397 13 494 -26 q 225 126 300 53 q 110 294 149 200 q 71 494 71 387 q 110 695 71 601 q 225 864 149 789 q 397 977 301 938 q 602 1015 494 1015 q 805 977 709 1015 q 977 864 901 938 q 1092 694 1053 789 q 1132 494 1132 600 z "},"P":{"ha":739,"x_min":114,"x_max":707,"o":"m 275 578 l 317 578 q 496 607 451 578 q 541 710 541 636 q 493 822 541 789 q 317 854 445 854 l 275 854 l 275 578 m 265 446 l 265 0 l 114 0 l 114 993 l 358 993 q 518 981 467 993 q 607 942 569 969 q 680 849 654 907 q 707 720 707 790 q 680 589 707 649 q 607 496 654 530 q 518 457 569 469 q 358 446 467 446 l 326 446 l 265 446 z "},"Q":{"ha":1203,"x_min":71,"x_max":1193,"o":"m 781 355 l 876 253 q 943 367 922 308 q 964 496 964 427 q 937 639 964 572 q 859 758 910 706 q 740 840 806 811 q 602 868 673 868 q 463 840 529 868 q 345 758 396 811 q 266 639 293 706 q 239 496 239 572 q 344 233 239 340 q 606 126 450 126 q 686 135 648 126 q 762 164 724 144 l 585 355 l 781 355 m 982 135 l 1193 -93 l 1000 -93 l 871 47 q 736 -6 804 12 q 593 -24 667 -24 q 395 16 492 -24 q 225 127 298 56 q 110 295 150 201 q 71 496 71 389 q 110 696 71 602 q 225 864 150 791 q 396 976 300 937 q 602 1015 493 1015 q 806 976 709 1015 q 977 864 902 937 q 1092 696 1052 790 q 1132 496 1132 602 q 1094 300 1132 393 q 982 135 1055 208 z "},"R":{"ha":778,"x_min":114,"x_max":796,"o":"m 275 570 l 304 570 q 475 600 433 570 q 517 705 517 629 q 472 821 517 787 q 304 854 427 854 l 275 854 l 275 570 m 265 444 l 265 0 l 114 0 l 114 993 l 339 993 q 493 980 438 993 q 586 937 547 967 q 657 844 632 901 q 682 720 682 787 q 625 533 682 600 q 454 452 567 465 l 796 0 l 614 0 l 283 444 l 265 444 z "},"S":{"ha":762,"x_min":57,"x_max":700,"o":"m 57 199 l 186 258 q 253 157 204 192 q 378 122 302 122 q 492 162 450 122 q 534 269 534 202 q 389 425 534 357 q 358 440 369 435 q 139 585 194 520 q 85 743 85 650 q 167 940 85 865 q 383 1015 250 1015 q 567 973 493 1015 q 669 851 641 930 l 543 786 q 478 854 513 833 q 396 876 442 876 q 293 842 331 876 q 254 751 254 808 q 422 585 254 662 q 443 575 435 578 q 645 443 590 507 q 700 281 700 378 q 611 57 700 140 q 371 -26 522 -26 q 163 32 244 -26 q 57 199 82 90 z "},"T":{"ha":707,"x_min":9,"x_max":697,"o":"m 435 856 l 435 0 l 273 0 l 273 856 l 9 856 l 9 993 l 697 993 l 697 856 l 435 856 z "},"U":{"ha":1034,"x_min":110,"x_max":925,"o":"m 110 993 l 269 993 l 269 390 q 331 188 269 256 q 517 121 393 121 q 702 188 640 121 q 764 390 764 256 l 764 993 l 925 993 l 925 375 q 823 74 925 174 q 517 -26 722 -26 q 211 73 312 -26 q 110 375 110 173 l 110 993 z "},"V":{"ha":859,"x_min":-14,"x_max":872,"o":"m 429 -39 l -14 993 l 154 993 l 376 464 q 409 379 396 418 q 429 304 422 340 q 452 382 438 342 q 484 464 465 422 l 705 993 l 872 993 l 429 -39 z "},"W":{"ha":1304,"x_min":-4,"x_max":1308,"o":"m -4 993 l 155 993 l 343 492 q 374 405 361 442 q 396 335 387 368 q 446 489 420 414 q 450 502 449 498 l 650 1032 l 860 492 q 888 413 875 452 q 913 334 901 374 q 931 401 920 364 q 961 488 943 437 l 1147 993 l 1308 993 l 924 -39 l 697 528 q 670 601 682 566 q 648 667 658 635 q 625 592 637 627 q 602 525 614 557 l 379 -39 l -4 993 z "},"X":{"ha":794,"x_min":0,"x_max":796,"o":"m 0 0 l 322 519 l 37 993 l 207 993 l 350 750 q 393 671 361 731 q 403 652 399 658 q 427 696 414 673 q 457 749 440 720 l 608 993 l 774 993 l 484 522 l 796 0 l 618 0 l 452 281 q 449 286 451 283 q 399 382 422 337 q 374 334 387 359 q 345 283 360 309 l 171 0 l 0 0 z "},"Y":{"ha":823,"x_min":-7,"x_max":829,"o":"m 328 0 l 328 454 l -7 993 l 163 993 l 371 656 q 390 622 378 643 q 412 576 401 601 q 432 621 422 600 q 454 660 443 642 l 668 993 l 829 993 l 488 454 l 488 0 l 328 0 z "},"Z":{"ha":800,"x_min":12,"x_max":772,"o":"m 12 0 l 518 856 l 97 856 l 97 993 l 766 993 l 265 144 l 772 144 l 772 0 l 12 0 z "},"[":{"ha":421,"x_min":135,"x_max":393,"o":"m 264 -174 l 393 -174 l 393 -281 l 135 -281 l 135 1015 l 393 1015 l 393 909 l 264 909 l 264 -174 z "},"\\":{"ha":602,"x_min":0,"x_max":602,"o":"m 486 -129 l 0 1015 l 115 1015 l 602 -129 l 486 -129 z "},"]":{"ha":421,"x_min":29,"x_max":286,"o":"m 157 -174 l 157 909 l 29 909 l 29 1015 l 286 1015 l 286 -281 l 29 -281 l 29 -174 l 157 -174 z "},"^":{"ha":1389,"x_min":283,"x_max":1104,"o":"m 621 990 l 768 990 l 1104 610 l 964 610 l 694 879 l 424 610 l 283 610 l 621 990 z "},"_":{"ha":694,"x_min":0,"x_max":694,"o":"m 0 -211 l 694 -211 l 694 -328 l 0 -328 l 0 -211 z "},"`":{"ha":694,"x_min":161,"x_max":443,"o":"m 443 741 l 359 741 l 161 925 l 314 925 l 443 741 z "},"a":{"ha":808,"x_min":54,"x_max":707,"o":"m 707 0 l 559 0 l 559 83 q 468 1 520 28 q 347 -26 415 -26 q 133 67 211 -26 q 54 322 54 160 q 134 571 54 476 q 343 665 214 665 q 478 632 422 665 q 559 538 534 600 l 559 643 l 707 643 l 707 0 m 564 323 q 517 479 564 423 q 387 534 471 534 q 256 477 304 534 q 208 318 208 420 q 254 160 208 216 q 385 104 300 104 q 514 165 464 104 q 564 323 564 225 z "},"b":{"ha":808,"x_min":102,"x_max":754,"o":"m 244 323 q 295 165 244 225 q 425 104 345 104 q 554 160 509 104 q 600 318 600 216 q 552 477 600 420 q 421 534 505 534 q 291 479 338 534 q 244 323 244 423 m 249 1051 l 249 538 q 331 632 275 599 q 467 665 388 665 q 674 571 595 665 q 754 322 754 476 q 676 67 754 160 q 461 -26 597 -26 q 341 1 393 -26 q 249 83 288 28 l 249 0 l 102 0 l 102 1051 l 249 1051 z "},"c":{"ha":631,"x_min":54,"x_max":582,"o":"m 582 460 q 503 517 548 497 q 406 536 458 536 q 261 478 315 536 q 207 323 207 420 q 261 166 207 223 q 412 109 316 109 q 508 129 466 109 q 582 189 550 149 l 582 20 q 495 -15 541 -3 q 396 -26 448 -26 q 150 70 245 -26 q 54 319 54 166 q 153 570 54 475 q 411 665 252 665 q 503 655 461 665 q 582 625 545 646 l 582 460 z "},"d":{"ha":808,"x_min":54,"x_max":707,"o":"m 564 323 q 517 479 564 423 q 387 534 471 534 q 256 477 304 534 q 208 318 208 420 q 254 160 208 216 q 385 104 300 104 q 514 164 465 104 q 564 323 564 224 m 559 1051 l 707 1051 l 707 0 l 559 0 l 559 83 q 468 1 520 28 q 347 -26 415 -26 q 133 67 211 -26 q 54 322 54 160 q 134 571 54 476 q 343 665 214 665 q 478 632 422 665 q 559 538 534 600 l 559 1051 z "},"e":{"ha":772,"x_min":54,"x_max":721,"o":"m 721 300 l 207 300 q 260 159 212 210 q 389 109 309 109 q 507 138 460 109 q 590 235 555 168 l 714 165 q 580 21 660 68 q 392 -26 500 -26 q 146 68 237 -26 q 54 319 54 162 q 149 568 54 471 q 392 665 243 665 q 634 576 547 665 q 721 328 721 488 l 721 300 m 568 399 q 515 504 559 468 q 395 541 471 541 q 278 505 322 541 q 216 399 234 470 l 568 399 z "},"f":{"ha":425,"x_min":9,"x_max":440,"o":"m 122 0 l 122 514 l 9 514 l 9 643 l 122 643 l 122 815 q 175 1004 122 943 q 340 1065 229 1065 q 389 1062 364 1065 q 440 1051 414 1059 l 440 918 q 405 933 422 928 q 368 939 387 939 q 292 906 315 939 q 269 796 269 873 l 269 643 l 424 643 l 424 514 l 269 514 l 269 0 l 122 0 z "},"g":{"ha":808,"x_min":54,"x_max":707,"o":"m 564 323 q 517 479 564 423 q 387 534 471 534 q 256 477 304 534 q 208 318 208 420 q 254 160 208 216 q 385 104 300 104 q 514 165 464 104 q 564 323 564 225 m 707 40 q 631 -225 707 -149 q 378 -302 556 -302 q 165 -247 245 -302 q 85 -98 86 -191 l 243 -97 q 281 -160 246 -138 q 380 -182 317 -182 q 516 -140 475 -182 q 558 -2 557 -99 l 559 83 q 468 1 520 28 q 347 -26 415 -26 q 133 67 211 -26 q 54 322 54 160 q 134 571 54 476 q 343 665 214 665 q 478 632 422 665 q 559 538 534 600 l 559 643 l 707 643 l 707 40 z "},"h":{"ha":817,"x_min":102,"x_max":722,"o":"m 102 0 l 102 1051 l 240 1051 l 240 538 q 344 635 284 604 q 489 665 404 665 q 611 643 561 665 q 690 575 662 620 q 715 513 707 549 q 722 390 722 478 l 722 0 l 574 0 l 574 330 q 543 499 574 457 q 433 541 512 541 q 341 522 382 541 q 278 468 301 503 q 255 409 262 445 q 249 293 249 372 l 249 0 l 102 0 z "},"i":{"ha":364,"x_min":89,"x_max":273,"o":"m 89 921 q 116 985 89 958 q 182 1013 144 1013 q 247 986 221 1013 q 273 921 273 960 q 247 855 273 882 q 182 828 220 828 q 116 856 144 828 q 89 921 89 883 m 109 0 l 109 643 l 256 643 l 256 0 l 109 0 z "},"j":{"ha":364,"x_min":89,"x_max":273,"o":"m 89 921 q 116 985 89 958 q 182 1013 144 1013 q 247 986 221 1013 q 273 921 273 960 q 247 855 273 882 q 182 828 220 828 q 116 856 144 828 q 89 921 89 883 m 109 -302 l 109 643 l 256 643 l 256 -302 l 109 -302 z "},"k":{"ha":717,"x_min":102,"x_max":728,"o":"m 102 0 l 102 1051 l 249 1051 l 249 376 l 518 643 l 700 643 l 408 359 l 728 0 l 538 0 l 249 332 l 249 0 l 102 0 z "},"l":{"ha":364,"x_min":109,"x_max":256,"o":"m 109 0 l 109 1051 l 256 1051 l 256 0 l 109 0 z "},"m":{"ha":1215,"x_min":102,"x_max":1120,"o":"m 249 0 l 102 0 l 102 643 l 240 643 l 240 538 q 340 636 284 605 q 472 667 396 667 q 597 635 547 667 q 672 539 646 604 q 780 636 723 606 q 911 667 838 667 q 1022 643 975 667 q 1096 575 1069 620 q 1114 525 1108 554 q 1120 441 1120 496 l 1120 390 l 1120 0 l 972 0 l 972 330 q 945 501 972 460 q 847 542 918 542 q 723 487 760 542 q 686 293 686 431 l 686 0 l 538 0 l 538 330 q 509 496 538 450 q 410 542 480 542 q 330 522 366 542 q 273 468 294 503 q 254 413 260 446 q 249 293 249 380 l 249 0 z "},"n":{"ha":817,"x_min":102,"x_max":722,"o":"m 102 0 l 102 643 l 240 643 l 240 538 q 344 635 284 604 q 489 665 404 665 q 611 643 561 665 q 690 575 662 620 q 715 513 707 549 q 722 390 722 478 l 722 0 l 574 0 l 574 330 q 543 499 574 457 q 433 541 512 541 q 341 522 382 541 q 278 468 301 503 q 255 409 262 445 q 249 293 249 372 l 249 0 l 102 0 z "},"o":{"ha":817,"x_min":54,"x_max":762,"o":"m 607 319 q 549 471 607 409 q 408 533 492 533 q 268 471 326 533 q 210 319 210 409 q 268 168 210 230 q 408 106 326 106 q 549 168 491 106 q 607 319 607 230 m 54 321 q 81 454 54 391 q 158 566 108 517 q 272 640 208 614 q 407 665 336 665 q 544 640 479 665 q 659 564 608 614 q 736 452 709 514 q 762 321 762 389 q 736 187 762 250 q 660 77 710 125 q 543 0 607 26 q 407 -26 478 -26 q 273 0 337 -26 q 158 75 208 26 q 81 188 107 125 q 54 321 54 250 z "},"p":{"ha":808,"x_min":102,"x_max":754,"o":"m 244 323 q 294 164 244 224 q 425 104 344 104 q 554 160 509 104 q 600 318 600 216 q 552 477 600 420 q 421 534 505 534 q 291 479 338 534 q 244 323 244 423 m 102 -302 l 102 643 l 249 643 l 249 538 q 331 632 275 599 q 467 665 388 665 q 674 571 595 665 q 754 322 754 476 q 676 67 754 160 q 461 -26 597 -26 q 341 1 393 -26 q 249 83 288 28 l 249 -302 l 102 -302 z "},"q":{"ha":808,"x_min":54,"x_max":707,"o":"m 564 323 q 517 479 564 423 q 387 534 471 534 q 256 477 304 534 q 208 318 208 420 q 254 160 208 216 q 385 104 300 104 q 514 164 465 104 q 564 323 564 224 m 707 -302 l 559 -302 l 559 83 q 468 1 520 28 q 347 -26 415 -26 q 133 67 211 -26 q 54 322 54 160 q 134 571 54 476 q 343 665 214 665 q 478 632 422 665 q 559 538 534 600 l 559 643 l 707 643 l 707 -302 z "},"r":{"ha":511,"x_min":102,"x_max":529,"o":"m 249 541 q 312 635 273 604 q 408 665 351 665 q 470 658 439 665 q 529 636 500 650 l 476 511 q 435 531 457 525 q 386 538 413 538 q 281 479 313 538 q 249 282 249 420 l 249 0 l 102 0 l 102 644 l 249 644 l 249 541 z "},"s":{"ha":591,"x_min":28,"x_max":545,"o":"m 28 117 l 150 183 q 200 110 163 135 q 294 85 237 85 q 372 107 344 85 q 400 170 400 130 q 300 259 400 222 q 248 279 266 271 q 103 366 144 322 q 62 473 62 410 q 130 613 62 559 q 309 667 197 667 q 436 639 383 667 q 514 561 490 612 l 410 489 q 369 537 398 519 q 302 555 340 555 q 235 535 260 555 q 210 482 210 515 q 323 391 210 432 q 379 370 359 378 q 506 290 468 334 q 545 179 545 245 q 475 28 545 83 q 282 -26 405 -26 q 125 9 188 -26 q 28 117 63 44 z "},"t":{"ha":421,"x_min":24,"x_max":396,"o":"m 136 0 l 136 514 l 24 514 l 24 643 l 136 643 l 136 886 l 283 886 l 283 643 l 396 643 l 396 514 l 283 514 l 283 0 l 136 0 z "},"u":{"ha":817,"x_min":97,"x_max":720,"o":"m 244 643 l 244 281 q 283 146 244 187 q 408 106 321 106 q 534 146 495 106 q 572 281 572 187 l 572 643 l 720 643 l 720 325 q 646 57 720 140 q 410 -26 572 -26 q 171 56 245 -26 q 97 325 97 139 l 97 643 l 244 643 z "},"v":{"ha":656,"x_min":-9,"x_max":665,"o":"m 328 -39 l -9 643 l 151 643 l 292 319 q 308 275 298 304 q 328 203 317 245 q 343 261 334 233 q 366 319 353 290 l 505 643 l 665 643 l 328 -39 z "},"w":{"ha":1042,"x_min":-9,"x_max":1051,"o":"m 717 -39 l 568 296 q 541 365 551 334 q 521 424 530 395 q 494 348 506 380 q 476 301 483 317 l 323 -39 l -9 643 l 147 643 l 292 333 q 309 279 300 313 q 323 203 317 245 q 332 254 324 228 q 357 319 339 281 l 514 667 l 526 667 l 686 319 q 708 259 701 287 q 717 203 715 231 q 732 273 723 240 q 754 332 742 305 l 896 643 l 1051 643 l 717 -39 z "},"x":{"ha":629,"x_min":-17,"x_max":644,"o":"m 146 0 l -17 0 l 227 346 l 18 643 l 180 643 l 271 510 q 296 471 285 490 q 315 432 307 452 q 334 466 323 448 q 361 511 345 484 l 450 643 l 611 643 l 403 345 l 644 0 l 484 0 l 364 169 q 359 177 362 172 q 314 257 324 229 q 288 209 300 231 q 262 168 275 187 l 146 0 z "},"y":{"ha":654,"x_min":1,"x_max":676,"o":"m 212 -302 l 61 -302 l 237 56 l 1 643 l 164 643 l 282 310 q 300 248 292 279 q 313 184 308 216 q 355 292 321 218 l 358 300 l 517 643 l 676 643 l 212 -302 z "},"z":{"ha":624,"x_min":-1,"x_max":596,"o":"m 596 0 l -1 0 l 357 514 l 35 514 l 35 643 l 596 643 l 245 129 l 596 129 l 596 0 z "},"{":{"ha":694,"x_min":110,"x_max":593,"o":"m 593 1002 l 593 880 q 576 881 587 880 q 561 882 566 882 q 461 853 487 882 q 435 736 435 825 l 435 572 q 405 423 435 467 q 297 359 375 378 q 405 297 374 341 q 435 147 435 252 l 435 -16 q 461 -134 435 -105 q 562 -163 488 -163 q 577 -162 567 -163 q 593 -161 587 -161 l 593 -281 l 550 -281 q 438 -273 481 -281 q 366 -248 395 -264 q 311 -182 327 -224 q 296 -45 296 -140 l 296 123 q 260 261 296 221 q 139 301 224 301 q 124 300 134 301 q 110 300 115 300 l 110 421 q 124 420 115 421 q 139 419 134 419 q 260 459 224 419 q 296 596 296 499 l 296 764 q 311 904 296 862 q 366 968 327 945 q 439 994 395 986 q 562 1002 484 1002 l 593 1002 z "},"|":{"ha":694,"x_min":288,"x_max":408,"o":"m 288 1061 l 408 1061 l 408 -328 l 288 -328 l 288 1061 z "},"}":{"ha":694,"x_min":103,"x_max":585,"o":"m 103 1002 l 134 1002 q 255 994 212 1002 q 329 968 299 986 q 383 903 368 945 q 399 764 399 861 l 399 596 q 434 459 399 498 q 555 419 469 419 q 570 420 559 419 q 585 421 580 421 l 585 300 q 570 300 580 300 q 555 301 560 301 q 434 261 470 301 q 399 123 399 221 l 399 -45 q 383 -183 399 -142 q 329 -248 368 -224 q 256 -273 300 -265 q 134 -281 212 -281 l 103 -281 l 103 -161 q 119 -162 109 -161 q 134 -163 129 -163 q 234 -134 208 -163 q 260 -16 260 -106 l 260 147 q 290 296 260 251 q 399 359 321 340 q 290 423 321 378 q 260 572 260 467 l 260 736 q 234 853 260 825 q 135 882 208 882 q 119 881 130 882 q 103 880 109 880 l 103 1002 z "},"~":{"ha":1157,"x_min":121,"x_max":1038,"o":"m 1038 532 l 1038 407 q 904 335 968 359 q 779 311 840 311 q 716 317 749 311 q 650 335 684 323 q 598 353 633 340 q 382 403 454 403 q 264 377 326 403 q 121 294 201 351 l 121 421 q 258 494 193 470 q 383 518 323 518 q 468 510 425 518 q 583 477 511 502 q 611 467 591 475 q 781 428 722 428 q 901 453 838 428 q 1038 532 963 478 z "},"Ä":{"ha":920,"x_min":-21,"x_max":940,"o":"m 323 390 l 600 390 l 498 616 q 480 666 490 638 q 461 729 471 694 q 444 668 453 696 q 425 616 435 640 l 323 390 m 770 0 l 657 256 l 264 256 l 149 0 l -21 0 l 460 1032 l 940 0 l 770 0 m 501 1201 q 526 1258 501 1234 q 583 1282 550 1282 q 640 1258 616 1282 q 664 1201 664 1235 q 641 1142 664 1165 q 583 1118 618 1118 q 525 1142 549 1118 q 501 1201 501 1166 m 254 1201 q 279 1258 254 1234 q 336 1282 303 1282 q 393 1258 370 1282 q 417 1201 417 1235 q 394 1142 417 1165 q 336 1118 372 1118 q 278 1142 302 1118 q 254 1201 254 1166 z "},"Å":{"ha":920,"x_min":-21,"x_max":940,"o":"m 383 1177 q 406 1122 383 1144 q 461 1100 429 1100 q 516 1122 493 1100 q 539 1177 539 1145 q 516 1231 539 1208 q 461 1254 494 1254 q 406 1231 429 1254 q 383 1177 383 1208 m 300 1177 q 346 1291 300 1244 q 460 1337 393 1337 q 573 1290 526 1337 q 621 1177 621 1243 q 574 1063 621 1109 q 460 1017 528 1017 q 346 1063 392 1017 q 300 1177 300 1109 m 770 0 l 657 256 l 264 256 l 149 0 l -21 0 l 443 993 l 478 993 l 940 0 l 770 0 m 323 390 l 600 390 l 498 616 q 480 666 490 638 q 461 729 471 694 q 444 668 453 696 q 425 616 435 640 l 323 390 z "},"Ç":{"ha":997,"x_min":71,"x_max":920,"o":"m 911 751 q 766 839 842 810 q 606 868 690 868 q 341 764 443 868 q 239 493 239 659 q 338 228 239 332 q 589 123 437 123 q 756 155 677 123 q 909 249 836 186 l 909 66 q 768 -3 844 20 q 602 -26 691 -26 q 391 11 488 -26 q 221 121 294 48 q 110 289 149 192 q 71 494 71 385 q 110 700 71 604 q 222 868 149 795 q 392 979 296 941 q 599 1017 488 1017 q 766 991 686 1017 q 920 914 845 966 l 911 751 m 427 -267 l 427 -195 q 522 -214 482 -208 q 591 -220 562 -220 q 644 -208 627 -220 q 661 -174 661 -197 q 639 -135 661 -147 q 570 -123 618 -123 q 557 -124 566 -123 q 543 -125 548 -125 l 543 0 l 601 0 l 601 -58 l 612 -58 q 726 -88 688 -58 q 764 -176 764 -117 q 722 -263 764 -233 q 602 -293 680 -293 q 525 -287 569 -293 q 427 -267 481 -280 z "},"É":{"ha":739,"x_min":114,"x_max":668,"o":"m 114 0 l 114 993 l 668 993 l 668 856 l 275 856 l 275 607 l 668 607 l 668 465 l 275 465 l 275 144 l 668 144 l 668 0 l 114 0 m 298 1090 l 427 1275 l 579 1275 l 381 1090 l 298 1090 z "},"Ñ":{"ha":1116,"x_min":114,"x_max":1002,"o":"m 114 0 l 114 1032 l 745 425 q 797 370 770 399 q 852 304 823 341 l 852 993 l 1002 993 l 1002 -39 l 358 579 q 308 632 332 604 q 262 690 284 660 l 262 0 l 114 0 m 757 1259 q 710 1155 745 1192 q 625 1118 675 1118 q 607 1119 616 1118 q 589 1122 598 1120 l 505 1144 q 488 1147 494 1146 q 479 1147 483 1147 q 441 1137 455 1147 q 420 1101 428 1126 l 359 1101 q 407 1208 375 1173 q 488 1243 438 1243 q 508 1242 498 1243 q 529 1238 519 1240 l 608 1217 q 621 1215 614 1215 q 640 1214 627 1214 q 675 1226 661 1214 q 696 1259 690 1238 l 757 1259 z "},"Ö":{"ha":1203,"x_min":71,"x_max":1132,"o":"m 964 494 q 936 637 964 570 q 857 758 909 705 q 741 839 807 810 q 602 867 675 867 q 462 839 528 867 q 345 758 396 811 q 266 638 293 706 q 239 494 239 570 q 266 352 239 419 q 345 232 293 285 q 462 151 396 179 q 602 123 528 123 q 740 151 674 123 q 857 232 805 179 q 936 352 909 285 q 964 494 964 420 m 1132 494 q 1092 294 1132 389 q 977 126 1053 200 q 804 13 900 52 q 602 -26 707 -26 q 397 13 494 -26 q 225 126 300 53 q 110 294 149 200 q 71 494 71 387 q 110 695 71 601 q 225 864 149 789 q 397 977 301 938 q 602 1015 494 1015 q 805 977 709 1015 q 977 864 901 938 q 1092 694 1053 789 q 1132 494 1132 600 m 643 1201 q 667 1258 643 1234 q 725 1282 692 1282 q 782 1258 758 1282 q 806 1201 806 1235 q 783 1142 806 1165 q 725 1118 760 1118 q 667 1142 690 1118 q 643 1201 643 1166 m 396 1201 q 420 1258 396 1234 q 478 1282 445 1282 q 535 1258 511 1282 q 559 1201 559 1235 q 536 1142 559 1165 q 478 1118 513 1118 q 420 1142 444 1118 q 396 1201 396 1166 z "},"Ü":{"ha":1034,"x_min":110,"x_max":925,"o":"m 110 993 l 269 993 l 269 390 q 331 188 269 256 q 517 121 393 121 q 702 188 640 121 q 764 390 764 256 l 764 993 l 925 993 l 925 375 q 823 74 925 174 q 517 -26 722 -26 q 211 73 312 -26 q 110 375 110 173 l 110 993 m 558 1201 q 583 1258 558 1234 q 640 1282 607 1282 q 697 1258 673 1282 q 721 1201 721 1235 q 698 1142 721 1165 q 640 1118 675 1118 q 582 1142 606 1118 q 558 1201 558 1166 m 311 1201 q 336 1258 311 1234 q 393 1282 360 1282 q 450 1258 427 1282 q 474 1201 474 1235 q 451 1142 474 1165 q 393 1118 429 1118 q 335 1142 359 1118 q 311 1201 311 1166 z "},"á":{"ha":808,"x_min":54,"x_max":707,"o":"m 707 0 l 559 0 l 559 83 q 468 1 520 28 q 347 -26 415 -26 q 133 67 211 -26 q 54 322 54 160 q 134 571 54 476 q 343 665 214 665 q 478 632 422 665 q 559 538 534 600 l 559 643 l 707 643 l 707 0 m 564 323 q 517 479 564 423 q 387 534 471 534 q 256 477 304 534 q 208 318 208 420 q 254 160 208 216 q 385 104 300 104 q 514 165 464 104 q 564 323 564 225 m 315 741 l 444 925 l 597 925 l 399 741 l 315 741 z "},"à":{"ha":808,"x_min":54,"x_max":707,"o":"m 707 0 l 559 0 l 559 83 q 468 1 520 28 q 347 -26 415 -26 q 133 67 211 -26 q 54 322 54 160 q 134 571 54 476 q 343 665 214 665 q 478 632 422 665 q 559 538 534 600 l 559 643 l 707 643 l 707 0 m 564 323 q 517 479 564 423 q 387 534 471 534 q 256 477 304 534 q 208 318 208 420 q 254 160 208 216 q 385 104 300 104 q 514 165 464 104 q 564 323 564 225 m 507 741 l 423 741 l 225 925 l 378 925 l 507 741 z "},"â":{"ha":808,"x_min":54,"x_max":707,"o":"m 707 0 l 559 0 l 559 83 q 468 1 520 28 q 347 -26 415 -26 q 133 67 211 -26 q 54 322 54 160 q 134 571 54 476 q 343 665 214 665 q 478 632 422 665 q 559 538 534 600 l 559 643 l 707 643 l 707 0 m 564 323 q 517 479 564 423 q 387 534 471 534 q 256 477 304 534 q 208 318 208 420 q 254 160 208 216 q 385 104 300 104 q 514 165 464 104 q 564 323 564 225 m 210 741 l 340 925 l 481 925 l 612 741 l 529 741 l 411 847 l 293 741 l 210 741 z "},"ä":{"ha":808,"x_min":54,"x_max":707,"o":"m 707 0 l 559 0 l 559 83 q 468 1 520 28 q 347 -26 415 -26 q 133 67 211 -26 q 54 322 54 160 q 134 571 54 476 q 343 665 214 665 q 478 632 422 665 q 559 538 534 600 l 559 643 l 707 643 l 707 0 m 564 323 q 517 479 564 423 q 387 534 471 534 q 256 477 304 534 q 208 318 208 420 q 254 160 208 216 q 385 104 300 104 q 514 165 464 104 q 564 323 564 225 m 452 851 q 477 908 452 884 q 534 932 501 932 q 591 908 568 932 q 615 851 615 885 q 592 792 615 815 q 534 768 570 768 q 476 792 500 768 q 452 851 452 816 m 205 851 q 230 908 205 884 q 288 932 254 932 q 345 908 321 932 q 368 851 368 885 q 346 792 368 815 q 288 768 323 768 q 229 792 253 768 q 205 851 205 816 z "},"ã":{"ha":808,"x_min":54,"x_max":707,"o":"m 707 0 l 559 0 l 559 83 q 468 1 520 28 q 347 -26 415 -26 q 133 67 211 -26 q 54 322 54 160 q 134 571 54 476 q 343 665 214 665 q 478 632 422 665 q 559 538 534 600 l 559 643 l 707 643 l 707 0 m 564 323 q 517 479 564 423 q 387 534 471 534 q 256 477 304 534 q 208 318 208 420 q 254 160 208 216 q 385 104 300 104 q 514 165 464 104 q 564 323 564 225 m 610 909 q 563 805 597 842 q 477 768 528 768 q 460 769 469 768 q 441 772 451 770 l 357 794 q 341 797 347 796 q 332 798 336 798 q 294 787 308 798 q 273 751 281 776 l 212 751 q 259 858 228 823 q 340 893 291 893 q 361 892 351 893 q 382 888 372 890 l 461 867 q 473 865 467 865 q 493 864 480 864 q 528 876 514 864 q 549 909 543 888 l 610 909 z "},"å":{"ha":808,"x_min":54,"x_max":707,"o":"m 309 871 q 331 816 309 838 q 385 794 353 794 q 440 817 417 794 q 463 871 463 840 q 440 926 463 903 q 385 949 417 949 q 331 926 353 949 q 309 871 309 903 m 224 871 q 271 985 224 938 q 385 1032 317 1032 q 498 985 451 1032 q 545 871 545 938 q 498 758 545 804 q 385 711 452 711 q 270 758 317 711 q 224 871 224 804 m 564 323 q 517 479 564 423 q 387 534 471 534 q 256 477 304 534 q 208 318 208 420 q 254 160 208 216 q 385 104 300 104 q 514 165 464 104 q 564 323 564 225 m 707 0 l 559 0 l 559 83 q 468 1 520 28 q 347 -26 415 -26 q 133 67 211 -26 q 54 322 54 160 q 134 571 54 476 q 343 665 214 665 q 478 632 422 665 q 559 538 534 600 l 559 643 l 707 643 l 707 0 z "},"ç":{"ha":631,"x_min":54,"x_max":582,"o":"m 582 460 q 503 517 548 497 q 406 536 458 536 q 261 478 315 536 q 207 323 207 420 q 261 166 207 223 q 412 109 316 109 q 508 129 466 109 q 582 189 550 149 l 582 20 q 495 -15 541 -3 q 396 -26 448 -26 q 150 70 245 -26 q 54 319 54 166 q 153 570 54 475 q 411 665 252 665 q 503 655 461 665 q 582 625 545 646 l 582 460 m 215 -267 l 215 -195 q 310 -214 270 -208 q 379 -220 350 -220 q 431 -208 414 -220 q 448 -174 448 -197 q 427 -135 448 -147 q 358 -123 406 -123 q 345 -124 353 -123 q 330 -125 336 -125 l 330 0 l 389 0 l 389 -58 l 400 -58 q 514 -88 476 -58 q 551 -176 551 -117 q 510 -263 551 -233 q 390 -293 468 -293 q 313 -287 357 -293 q 215 -267 269 -280 z "},"é":{"ha":772,"x_min":54,"x_max":721,"o":"m 721 300 l 207 300 q 260 159 212 210 q 389 109 309 109 q 507 138 460 109 q 590 235 555 168 l 714 165 q 580 21 660 68 q 392 -26 500 -26 q 146 68 237 -26 q 54 319 54 162 q 149 568 54 471 q 392 665 243 665 q 634 576 547 665 q 721 328 721 488 l 721 300 m 568 399 q 515 504 559 468 q 395 541 471 541 q 278 505 322 541 q 216 399 234 470 l 568 399 m 296 741 l 425 925 l 578 925 l 380 741 l 296 741 z "},"è":{"ha":772,"x_min":54,"x_max":721,"o":"m 721 300 l 207 300 q 260 159 212 210 q 389 109 309 109 q 507 138 460 109 q 590 235 555 168 l 714 165 q 580 21 660 68 q 392 -26 500 -26 q 146 68 237 -26 q 54 319 54 162 q 149 568 54 471 q 392 665 243 665 q 634 576 547 665 q 721 328 721 488 l 721 300 m 568 399 q 515 504 559 468 q 395 541 471 541 q 278 505 322 541 q 216 399 234 470 l 568 399 m 488 741 l 404 741 l 206 925 l 359 925 l 488 741 z "},"ê":{"ha":772,"x_min":54,"x_max":721,"o":"m 721 300 l 207 300 q 260 159 212 210 q 389 109 309 109 q 507 138 460 109 q 590 235 555 168 l 714 165 q 580 21 660 68 q 392 -26 500 -26 q 146 68 237 -26 q 54 319 54 162 q 149 568 54 471 q 392 665 243 665 q 634 576 547 665 q 721 328 721 488 l 721 300 m 568 399 q 515 504 559 468 q 395 541 471 541 q 278 505 322 541 q 216 399 234 470 l 568 399 m 191 741 l 321 925 l 463 925 l 593 741 l 510 741 l 392 847 l 274 741 l 191 741 z "},"ë":{"ha":772,"x_min":54,"x_max":721,"o":"m 721 300 l 207 300 q 260 159 212 210 q 389 109 309 109 q 507 138 460 109 q 590 235 555 168 l 714 165 q 580 21 660 68 q 392 -26 500 -26 q 146 68 237 -26 q 54 319 54 162 q 149 568 54 471 q 392 665 243 665 q 634 576 547 665 q 721 328 721 488 l 721 300 m 568 399 q 515 504 559 468 q 395 541 471 541 q 278 505 322 541 q 216 399 234 470 l 568 399 m 433 851 q 458 908 433 884 q 515 932 482 932 q 572 908 549 932 q 596 851 596 885 q 573 792 596 815 q 515 768 551 768 q 457 792 481 768 q 433 851 433 816 m 186 851 q 211 908 186 884 q 269 932 235 932 q 326 908 302 932 q 349 851 349 885 q 327 792 349 815 q 269 768 304 768 q 210 792 234 768 q 186 851 186 816 z "},"í":{"ha":364,"x_min":86,"x_max":368,"o":"m 109 0 l 109 643 l 256 643 l 256 0 l 109 0 m 86 741 l 215 925 l 368 925 l 170 741 l 86 741 z "},"ì":{"ha":364,"x_min":-4,"x_max":277,"o":"m 109 0 l 109 643 l 256 643 l 256 0 l 109 0 m 277 741 l 194 741 l -4 925 l 149 925 l 277 741 z "},"î":{"ha":364,"x_min":-20,"x_max":383,"o":"m 109 0 l 109 643 l 256 643 l 256 0 l 109 0 m -20 741 l 111 925 l 252 925 l 383 741 l 300 741 l 182 847 l 64 741 l -20 741 z "},"ï":{"ha":364,"x_min":-24,"x_max":386,"o":"m 109 0 l 109 643 l 256 643 l 256 0 l 109 0 m 223 851 q 248 908 223 884 q 305 932 272 932 q 362 908 338 932 q 386 851 386 885 q 363 792 386 815 q 305 768 340 768 q 247 792 271 768 q 223 851 223 816 m -24 851 q 1 908 -24 884 q 58 932 25 932 q 115 908 92 932 q 139 851 139 885 q 116 792 139 815 q 58 768 94 768 q 0 792 24 768 q -24 851 -24 816 z "},"ñ":{"ha":817,"x_min":102,"x_max":722,"o":"m 102 0 l 102 643 l 240 643 l 240 538 q 344 635 284 604 q 489 665 404 665 q 611 643 561 665 q 690 575 662 620 q 715 513 707 549 q 722 390 722 478 l 722 0 l 574 0 l 574 330 q 543 499 574 457 q 433 541 512 541 q 341 522 382 541 q 278 468 301 503 q 255 409 262 445 q 249 293 249 372 l 249 0 l 102 0 m 618 909 q 571 805 606 842 q 486 768 536 768 q 468 769 477 768 q 450 772 459 770 l 366 794 q 349 797 355 796 q 340 798 344 798 q 302 787 316 798 q 281 751 289 776 l 220 751 q 268 858 236 823 q 349 893 299 893 q 369 892 359 893 q 390 888 380 890 l 469 867 q 481 865 475 865 q 501 864 488 864 q 536 876 522 864 q 557 909 551 888 l 618 909 z "},"ó":{"ha":817,"x_min":54,"x_max":762,"o":"m 607 319 q 549 471 607 409 q 408 533 492 533 q 268 471 326 533 q 210 319 210 409 q 268 168 210 230 q 408 106 326 106 q 549 168 491 106 q 607 319 607 230 m 54 321 q 81 454 54 391 q 158 566 108 517 q 272 640 208 614 q 407 665 336 665 q 544 640 479 665 q 659 564 608 614 q 736 452 709 514 q 762 321 762 389 q 736 187 762 250 q 660 77 710 125 q 543 0 607 26 q 407 -26 478 -26 q 273 0 337 -26 q 158 75 208 26 q 81 188 107 125 q 54 321 54 250 m 313 741 l 441 925 l 594 925 l 396 741 l 313 741 z "},"ò":{"ha":817,"x_min":54,"x_max":762,"o":"m 607 319 q 549 471 607 409 q 408 533 492 533 q 268 471 326 533 q 210 319 210 409 q 268 168 210 230 q 408 106 326 106 q 549 168 491 106 q 607 319 607 230 m 54 321 q 81 454 54 391 q 158 566 108 517 q 272 640 208 614 q 407 665 336 665 q 544 640 479 665 q 659 564 608 614 q 736 452 709 514 q 762 321 762 389 q 736 187 762 250 q 660 77 710 125 q 543 0 607 26 q 407 -26 478 -26 q 273 0 337 -26 q 158 75 208 26 q 81 188 107 125 q 54 321 54 250 m 504 741 l 420 741 l 222 925 l 375 925 l 504 741 z "},"ô":{"ha":817,"x_min":54,"x_max":762,"o":"m 607 319 q 549 471 607 409 q 408 533 492 533 q 268 471 326 533 q 210 319 210 409 q 268 168 210 230 q 408 106 326 106 q 549 168 491 106 q 607 319 607 230 m 54 321 q 81 454 54 391 q 158 566 108 517 q 272 640 208 614 q 407 665 336 665 q 544 640 479 665 q 659 564 608 614 q 736 452 709 514 q 762 321 762 389 q 736 187 762 250 q 660 77 710 125 q 543 0 607 26 q 407 -26 478 -26 q 273 0 337 -26 q 158 75 208 26 q 81 188 107 125 q 54 321 54 250 m 207 741 l 338 925 l 479 925 l 610 741 l 526 741 l 408 847 l 290 741 l 207 741 z "},"ö":{"ha":817,"x_min":54,"x_max":762,"o":"m 607 319 q 549 471 607 409 q 408 533 492 533 q 268 471 326 533 q 210 319 210 409 q 268 168 210 230 q 408 106 326 106 q 549 168 491 106 q 607 319 607 230 m 54 321 q 81 454 54 391 q 158 566 108 517 q 272 640 208 614 q 407 665 336 665 q 544 640 479 665 q 659 564 608 614 q 736 452 709 514 q 762 321 762 389 q 736 187 762 250 q 660 77 710 125 q 543 0 607 26 q 407 -26 478 -26 q 273 0 337 -26 q 158 75 208 26 q 81 188 107 125 q 54 321 54 250 m 450 851 q 474 908 450 884 q 532 932 498 932 q 589 908 565 932 q 612 851 612 885 q 590 792 612 815 q 532 768 567 768 q 473 792 497 768 q 450 851 450 816 m 203 851 q 227 908 203 884 q 285 932 252 932 q 342 908 318 932 q 366 851 366 885 q 343 792 366 815 q 285 768 320 768 q 227 792 250 768 q 203 851 203 816 z "},"õ":{"ha":817,"x_min":54,"x_max":762,"o":"m 607 319 q 549 471 607 409 q 408 533 492 533 q 268 471 326 533 q 210 319 210 409 q 268 168 210 230 q 408 106 326 106 q 549 168 491 106 q 607 319 607 230 m 54 321 q 81 454 54 391 q 158 566 108 517 q 272 640 208 614 q 407 665 336 665 q 544 640 479 665 q 659 564 608 614 q 736 452 709 514 q 762 321 762 389 q 736 187 762 250 q 660 77 710 125 q 543 0 607 26 q 407 -26 478 -26 q 273 0 337 -26 q 158 75 208 26 q 81 188 107 125 q 54 321 54 250 m 607 909 q 560 805 595 842 q 475 768 525 768 q 457 769 466 768 q 439 772 448 770 l 355 794 q 338 797 344 796 q 329 798 333 798 q 292 787 305 798 q 271 751 278 776 l 210 751 q 257 858 225 823 q 338 893 288 893 q 358 892 348 893 q 379 888 369 890 l 458 867 q 471 865 464 865 q 490 864 477 864 q 526 876 511 864 q 546 909 540 888 l 607 909 z "},"ú":{"ha":817,"x_min":97,"x_max":720,"o":"m 244 643 l 244 281 q 283 146 244 187 q 408 106 321 106 q 534 146 495 106 q 572 281 572 187 l 572 643 l 720 643 l 720 325 q 646 57 720 140 q 410 -26 572 -26 q 171 56 245 -26 q 97 325 97 139 l 97 643 l 244 643 m 313 741 l 441 925 l 594 925 l 396 741 l 313 741 z "},"ù":{"ha":817,"x_min":97,"x_max":720,"o":"m 244 643 l 244 281 q 283 146 244 187 q 408 106 321 106 q 534 146 495 106 q 572 281 572 187 l 572 643 l 720 643 l 720 325 q 646 57 720 140 q 410 -26 572 -26 q 171 56 245 -26 q 97 325 97 139 l 97 643 l 244 643 m 504 741 l 420 741 l 222 925 l 375 925 l 504 741 z "},"û":{"ha":817,"x_min":97,"x_max":720,"o":"m 244 643 l 244 281 q 283 146 244 187 q 408 106 321 106 q 534 146 495 106 q 572 281 572 187 l 572 643 l 720 643 l 720 325 q 646 57 720 140 q 410 -26 572 -26 q 171 56 245 -26 q 97 325 97 139 l 97 643 l 244 643 m 207 741 l 338 925 l 479 925 l 610 741 l 526 741 l 408 847 l 290 741 l 207 741 z "},"ü":{"ha":817,"x_min":97,"x_max":720,"o":"m 244 643 l 244 281 q 283 146 244 187 q 408 106 321 106 q 534 146 495 106 q 572 281 572 187 l 572 643 l 720 643 l 720 325 q 646 57 720 140 q 410 -26 572 -26 q 171 56 245 -26 q 97 325 97 139 l 97 643 l 244 643 m 450 851 q 474 908 450 884 q 532 932 498 932 q 589 908 565 932 q 612 851 612 885 q 590 792 612 815 q 532 768 567 768 q 473 792 497 768 q 450 851 450 816 m 203 851 q 227 908 203 884 q 285 932 252 932 q 342 908 318 932 q 366 851 366 885 q 343 792 366 815 q 285 768 320 768 q 227 792 250 768 q 203 851 203 816 z "},"†":{"ha":739,"x_min":57,"x_max":684,"o":"m 300 -302 l 300 503 l 57 503 l 57 627 l 300 627 l 300 993 l 439 993 l 439 627 l 684 627 l 684 503 l 439 503 l 439 -302 l 300 -302 z "},"°":{"ha":457,"x_min":29,"x_max":429,"o":"m 229 916 q 140 879 177 916 q 103 790 103 842 q 140 701 103 739 q 229 664 177 664 q 318 701 281 664 q 354 790 354 738 q 318 879 354 842 q 229 916 281 916 m 229 990 q 370 931 311 990 q 429 789 429 872 q 370 648 429 707 q 228 589 311 589 q 87 647 144 589 q 29 789 29 705 q 87 932 29 873 q 229 990 146 990 z "},"¢":{"ha":839,"x_min":126,"x_max":673,"o":"m 422 707 q 305 639 350 694 q 260 509 260 584 q 303 371 260 425 q 422 302 346 317 l 422 707 m 673 652 q 591 690 635 676 q 493 708 547 704 l 493 302 q 600 329 557 313 q 673 368 644 345 l 673 227 q 590 192 635 204 q 493 178 545 180 l 493 40 l 422 40 l 422 180 q 208 279 290 191 q 126 498 126 367 q 205 719 126 631 q 422 828 284 807 l 422 937 l 493 937 l 493 831 q 582 820 537 829 q 673 790 626 810 l 673 652 z "},"£":{"ha":839,"x_min":50,"x_max":819,"o":"m 50 33 q 134 124 90 94 q 228 160 178 155 q 252 222 244 193 q 260 281 260 252 q 252 337 260 309 q 228 397 244 366 l 58 397 l 58 493 l 186 493 q 140 594 156 543 q 125 696 125 645 q 218 917 125 831 q 463 1003 312 1003 q 687 926 605 1003 q 782 703 770 848 l 631 682 q 579 824 624 776 q 456 872 535 872 q 332 825 380 872 q 285 703 285 778 q 335 520 285 650 q 346 493 342 502 l 589 493 l 589 397 l 376 397 q 385 361 382 380 q 387 323 387 343 q 370 236 387 279 q 322 160 353 193 l 326 160 q 468 129 382 160 q 589 98 554 98 q 673 117 636 98 q 729 171 709 136 l 819 90 q 735 2 787 33 q 616 -29 682 -29 q 443 3 552 -29 q 288 36 334 36 q 212 18 250 36 q 139 -35 175 1 l 50 33 z "},"§":{"ha":739,"x_min":57,"x_max":685,"o":"m 374 191 q 494 241 444 191 q 545 364 545 292 q 494 488 545 436 q 374 539 444 539 q 254 488 303 539 q 204 364 204 437 q 254 241 204 292 q 374 191 303 191 m 104 -60 l 241 -60 q 276 -153 244 -122 q 368 -183 307 -183 q 462 -156 427 -183 q 497 -82 497 -128 q 357 41 497 -18 q 329 53 338 49 q 202 112 241 91 q 142 154 163 134 q 78 247 98 195 q 57 366 57 298 q 103 517 57 452 q 235 615 149 582 q 143 689 174 644 q 113 799 113 735 q 184 958 113 900 q 380 1017 255 1017 q 561 958 498 1017 q 624 789 624 899 l 624 775 l 497 775 q 463 867 495 836 q 371 899 431 899 q 284 871 317 899 q 250 802 250 844 q 282 735 250 763 q 424 664 313 708 q 629 537 572 604 q 685 361 685 471 q 638 205 685 267 q 498 117 591 144 q 597 36 562 87 q 632 -79 632 -16 q 561 -245 632 -184 q 364 -306 489 -306 q 175 -242 246 -306 q 104 -74 104 -178 l 104 -60 z "},"•":{"ha":819,"x_min":208,"x_max":610,"o":"m 208 517 q 267 659 208 600 q 410 717 326 717 q 551 658 492 717 q 610 517 610 600 q 550 375 610 434 q 408 315 491 315 q 267 374 325 315 q 208 517 208 433 z "},"¶":{"ha":694,"x_min":37,"x_max":657,"o":"m 657 1003 l 657 936 l 578 936 l 578 0 l 490 0 l 490 936 l 376 936 l 376 0 l 288 0 l 288 532 q 105 600 174 536 q 37 766 37 665 q 110 938 37 873 q 302 1003 182 1003 l 657 1003 z "},"ß":{"ha":836,"x_min":32,"x_max":779,"o":"m 347 131 q 391 115 368 120 q 439 110 414 110 q 577 160 528 110 q 625 304 625 210 q 568 451 625 403 q 395 500 511 500 l 371 500 l 371 636 q 382 635 375 636 q 393 635 390 635 q 505 672 465 635 q 545 778 545 709 q 509 894 545 854 q 406 935 473 935 q 291 887 323 935 q 258 693 258 839 l 258 0 l 111 0 l 111 504 l 32 504 l 32 643 l 111 643 l 111 802 q 194 992 111 918 q 411 1065 277 1065 q 620 994 542 1065 q 699 803 699 922 q 652 660 699 716 q 511 576 606 604 q 709 496 639 570 q 779 292 779 422 q 697 56 779 139 q 464 -26 616 -26 q 400 -20 428 -26 q 347 0 372 -14 l 347 131 z "},"®":{"ha":1157,"x_min":77,"x_max":1080,"o":"m 494 710 l 494 533 l 574 533 q 673 554 642 533 q 704 619 704 574 q 671 688 704 666 q 568 710 639 710 l 494 710 m 374 786 l 590 786 q 768 747 707 786 q 828 633 828 709 q 795 531 828 572 q 703 478 763 491 l 828 224 l 693 224 l 582 458 l 494 458 l 494 224 l 374 224 l 374 786 m 579 924 q 416 893 492 924 q 281 802 341 862 q 185 659 218 738 q 151 496 151 581 q 183 334 151 411 q 275 196 215 257 q 414 101 336 134 q 572 68 491 68 q 740 100 661 68 q 882 193 819 132 q 975 328 942 252 q 1007 489 1007 404 q 976 657 1007 579 q 885 796 945 734 q 744 891 822 859 q 579 924 667 924 m 578 997 q 773 959 682 997 q 937 847 865 921 q 1044 687 1007 777 q 1080 496 1080 597 q 1043 301 1080 392 q 933 140 1005 210 q 768 31 860 69 q 578 -7 677 -7 q 386 32 478 -7 q 222 144 294 71 q 114 307 151 216 q 77 496 77 397 q 116 688 77 595 q 228 854 155 781 q 387 961 298 925 q 578 997 475 997 z "},"©":{"ha":1157,"x_min":77,"x_max":1080,"o":"m 818 612 l 705 612 q 665 690 699 663 q 576 717 631 717 q 471 658 509 717 q 433 496 433 600 q 472 337 433 393 q 583 281 511 281 q 671 310 637 281 q 711 395 704 340 l 823 395 q 751 248 819 303 q 579 192 684 192 q 382 273 455 192 q 310 492 310 353 q 384 716 310 633 q 582 800 458 800 q 747 748 682 800 q 818 612 812 696 m 579 924 q 414 892 491 924 q 278 800 338 861 q 184 659 217 738 q 151 496 151 581 q 184 333 151 410 q 278 195 216 256 q 417 100 339 133 q 579 68 494 68 q 742 101 664 68 q 884 196 820 134 q 976 332 944 256 q 1007 496 1007 408 q 975 661 1007 583 q 884 799 943 739 q 745 892 822 860 q 579 924 667 924 m 578 997 q 772 960 681 997 q 935 850 863 922 q 1043 688 1006 779 q 1080 496 1080 597 q 1043 302 1080 392 q 936 143 1006 212 q 770 32 863 71 q 578 -7 677 -7 q 388 32 479 -7 q 225 142 297 70 q 115 305 153 214 q 77 496 77 396 q 115 686 77 594 q 227 851 154 778 q 386 960 298 924 q 578 997 475 997 z "},"™":{"ha":1157,"x_min":153,"x_max":965,"o":"m 549 990 l 664 990 l 760 746 l 850 990 l 965 990 l 965 623 l 888 623 l 888 913 l 779 623 l 739 623 l 627 913 l 627 623 l 549 623 l 549 990 m 153 990 l 469 990 l 469 926 l 355 926 l 355 623 l 268 623 l 268 926 l 153 926 l 153 990 z "},"´":{"ha":694,"x_min":252,"x_max":533,"o":"m 252 741 l 380 925 l 533 925 l 335 741 l 252 741 z "},"¨":{"ha":694,"x_min":142,"x_max":551,"o":"m 389 851 q 413 908 389 884 q 471 932 437 932 q 528 908 504 932 q 551 851 551 885 q 529 792 551 815 q 471 768 506 768 q 412 792 436 768 q 389 851 389 816 m 142 851 q 166 908 142 884 q 224 932 191 932 q 281 908 257 932 q 304 851 304 885 q 282 792 304 815 q 224 768 259 768 q 165 792 189 768 q 142 851 142 816 z "},"≠":{"ha":1157,"x_min":172,"x_max":985,"o":"m 817 822 l 900 754 l 785 608 l 985 608 l 985 498 l 711 498 l 578 329 l 985 329 l 985 220 l 505 220 l 336 7 l 253 74 l 368 220 l 172 220 l 172 329 l 439 329 l 574 498 l 172 498 l 172 608 l 647 608 l 817 822 z "},"Æ":{"ha":1265,"x_min":-21,"x_max":1276,"o":"m 323 390 l 610 390 l 526 616 q 497 703 509 662 q 478 782 486 743 q 458 708 471 746 q 428 631 446 671 l 323 390 m 901 993 l 958 856 l 595 856 l 682 612 l 1015 612 l 1068 471 l 736 471 l 857 144 l 1222 144 l 1276 0 l 753 0 l 659 256 l 264 256 l 149 0 l -21 0 l 443 993 l 901 993 z "},"Ø":{"ha":1203,"x_min":71,"x_max":1132,"o":"m 158 -50 l 74 24 l 199 157 q 102 313 134 230 q 71 496 71 397 q 110 696 71 602 q 225 864 150 791 q 397 977 300 938 q 602 1017 494 1017 q 756 992 680 1017 q 909 918 832 968 l 1026 1043 l 1114 972 l 994 844 q 1098 682 1064 767 q 1132 496 1132 596 q 1092 296 1132 390 q 977 127 1052 201 q 804 16 901 55 q 602 -24 707 -24 q 433 2 513 -24 q 281 82 353 28 l 158 -50 m 387 196 q 483 142 433 160 q 591 125 534 125 q 739 152 672 125 q 859 233 805 179 q 937 353 910 286 q 964 496 964 420 q 943 619 964 560 q 884 728 923 677 l 387 196 m 803 804 q 708 852 757 837 q 602 868 659 868 q 461 840 528 868 q 345 760 395 812 q 266 640 293 707 q 239 496 239 572 q 256 378 239 432 q 310 277 273 325 l 803 804 z "},"∞":{"ha":1157,"x_min":144,"x_max":1014,"o":"m 629 379 q 704 296 660 324 q 803 268 747 268 q 911 310 869 268 q 953 416 953 351 q 914 524 953 481 q 818 567 876 567 q 722 524 765 567 q 629 379 678 481 m 529 449 q 454 532 498 504 q 355 561 410 561 q 247 519 289 561 q 205 411 205 477 q 244 305 205 347 q 339 262 282 262 q 437 305 393 262 q 529 449 481 347 m 585 319 q 484 185 536 228 q 367 143 431 143 q 209 221 274 143 q 144 414 144 298 q 202 610 144 535 q 351 685 260 685 q 466 644 414 685 q 572 509 517 604 q 674 645 621 603 q 799 686 727 686 q 949 608 885 686 q 1014 415 1014 529 q 957 219 1014 294 q 807 144 899 144 q 694 183 745 144 q 585 319 644 222 z "},"±":{"ha":1157,"x_min":172,"x_max":985,"o":"m 172 123 l 985 123 l 985 9 l 172 9 l 172 123 m 521 818 l 636 818 l 636 591 l 985 591 l 985 479 l 636 479 l 636 253 l 521 253 l 521 479 l 172 479 l 172 591 l 521 591 l 521 818 z "},"≤":{"ha":1157,"x_min":176,"x_max":981,"o":"m 176 121 l 981 121 l 981 8 l 176 8 l 176 121 m 981 829 l 981 710 l 378 515 l 981 321 l 981 201 l 176 465 l 176 564 l 981 829 z "},"≥":{"ha":1157,"x_min":176,"x_max":982,"o":"m 176 121 l 982 121 l 982 8 l 176 8 l 176 121 m 176 829 l 981 564 l 981 465 l 176 201 l 176 321 l 781 515 l 176 710 l 176 829 z "},"¥":{"ha":839,"x_min":0,"x_max":823,"o":"m 334 0 l 334 392 l 7 392 l 7 490 l 309 490 l 240 602 l 7 602 l 7 700 l 180 700 l 0 985 l 163 985 l 371 650 q 390 616 378 638 q 412 568 401 594 q 432 613 421 591 q 454 654 442 635 l 668 985 l 823 985 l 643 700 l 817 700 l 817 602 l 579 602 l 510 490 l 817 490 l 817 392 l 482 392 l 482 0 l 334 0 z "},"µ":{"ha":819,"x_min":-62,"x_max":758,"o":"m 139 733 l 294 733 l 210 302 q 203 265 205 283 q 201 232 201 248 q 233 133 201 167 q 325 98 264 98 q 456 158 408 98 q 532 357 505 218 l 606 733 l 758 733 l 660 232 q 650 177 653 199 q 647 142 647 155 q 657 107 647 117 q 693 97 668 97 q 707 97 702 97 q 716 98 712 98 l 694 -9 q 648 -18 673 -16 q 593 -21 623 -21 q 517 0 543 -21 q 492 64 492 22 l 492 74 q 418 3 464 28 q 319 -22 373 -22 q 226 -5 264 -22 q 160 52 188 13 l 93 -292 l -62 -292 l 139 733 z "},"∂":{"ha":729,"x_min":62,"x_max":671,"o":"m 514 433 q 532 560 526 503 q 538 660 538 616 q 518 778 538 741 q 456 815 498 815 q 356 775 414 815 q 273 736 298 736 q 230 753 248 736 q 211 794 211 771 q 264 872 211 839 q 400 905 318 905 q 595 798 519 905 q 671 511 671 690 q 569 133 671 282 q 314 -17 467 -17 q 134 59 205 -17 q 62 253 62 135 q 139 472 62 384 q 328 559 216 559 q 441 529 396 559 q 514 433 486 498 m 478 342 q 450 463 478 420 q 371 505 422 505 q 253 416 300 505 q 205 187 205 327 q 233 67 205 109 q 313 25 260 25 q 431 115 384 25 q 478 342 478 205 z "},"∑":{"ha":964,"x_min":22,"x_max":936,"o":"m 41 999 l 909 999 l 909 846 l 285 846 l 724 382 l 275 -113 l 936 -113 l 936 -267 l 22 -267 l 22 -158 l 505 375 l 41 863 l 41 999 z "},"∏":{"ha":1071,"x_min":104,"x_max":964,"o":"m 104 999 l 964 999 l 964 -267 l 770 -267 l 770 833 l 298 833 l 298 -267 l 104 -267 l 104 999 z "},"π":{"ha":928,"x_min":12,"x_max":890,"o":"m 244 603 l 214 603 q 157 582 177 603 q 130 514 137 560 l 12 514 q 80 687 31 641 q 244 733 129 733 l 890 733 l 864 603 l 733 603 l 676 307 q 671 279 675 298 q 656 179 656 202 q 671 123 656 140 q 724 107 687 107 q 752 109 736 107 q 793 114 769 111 l 770 0 q 728 -8 750 -5 q 677 -11 707 -11 q 540 22 583 -11 q 497 126 497 54 q 532 359 497 178 l 533 363 l 581 603 l 399 603 l 281 0 l 127 0 l 244 603 z "},"∫":{"ha":760,"x_min":33,"x_max":728,"o":"m 220 -175 q 302 294 292 -175 q 304 378 304 349 q 381 898 313 743 q 593 1053 449 1053 q 690 1022 652 1053 q 728 946 728 991 q 705 882 728 905 q 640 859 682 859 q 590 874 610 859 q 562 918 570 889 q 558 949 559 930 q 541 977 556 976 q 460 559 472 977 q 454 391 456 450 q 434 101 448 201 q 393 -65 420 1 q 299 -204 356 -157 q 167 -252 241 -252 q 71 -222 108 -252 q 33 -146 33 -192 q 57 -80 33 -103 q 125 -57 81 -57 q 170 -69 151 -57 q 197 -106 188 -81 q 203 -146 201 -117 q 220 -175 205 -175 z "},"ª":{"ha":607,"x_min":40,"x_max":530,"o":"m 530 543 l 419 543 l 419 602 q 351 544 391 563 q 261 525 311 525 q 99 590 159 525 q 40 768 40 655 q 100 942 40 876 q 257 1008 161 1008 q 358 985 316 1008 q 419 920 401 962 l 419 993 l 530 993 l 530 543 m 424 770 q 389 879 424 840 q 290 918 353 918 q 192 878 228 918 q 157 765 157 837 q 191 655 157 694 q 289 616 226 616 q 386 659 349 616 q 424 770 424 701 z "},"º":{"ha":612,"x_min":40,"x_max":572,"o":"m 456 766 q 412 873 456 829 q 307 917 369 917 q 200 873 244 917 q 157 766 157 830 q 200 660 157 703 q 307 616 244 616 q 412 660 368 616 q 456 766 456 704 m 40 768 q 60 861 40 817 q 119 939 81 905 q 204 990 156 972 q 306 1008 252 1008 q 409 990 361 1008 q 494 937 456 972 q 552 860 532 903 q 572 768 572 817 q 553 675 572 718 q 494 597 533 631 q 408 543 456 562 q 306 525 359 525 q 205 543 253 525 q 119 596 157 562 q 60 674 81 631 q 40 768 40 718 z "},"Ω":{"ha":1064,"x_min":47,"x_max":1017,"o":"m 810 144 l 1017 144 l 1017 0 l 608 0 l 608 155 q 772 321 717 219 q 828 559 828 423 q 746 791 828 702 q 532 880 664 880 q 317 790 398 880 q 236 551 236 701 q 293 319 236 422 q 456 155 350 217 l 456 0 l 47 0 l 47 144 l 254 144 q 111 330 157 233 q 65 549 65 428 q 194 893 65 762 q 532 1025 323 1025 q 868 894 737 1025 q 999 559 999 764 q 955 334 999 431 q 810 144 910 237 z "},"æ":{"ha":1197,"x_min":47,"x_max":1140,"o":"m 987 399 q 936 504 979 468 q 815 541 892 541 q 698 505 743 541 q 636 399 654 470 l 987 399 m 1140 300 l 627 300 q 680 157 631 209 q 808 106 728 106 q 926 136 878 106 q 1010 235 974 167 l 1133 165 q 1000 21 1079 68 q 811 -26 920 -26 q 671 -1 730 -26 q 571 79 613 25 q 456 1 526 28 q 304 -26 387 -26 q 117 35 187 -26 q 47 199 47 97 q 117 354 47 295 q 298 412 186 412 q 405 401 357 412 q 492 366 452 389 q 493 375 492 370 q 493 390 493 380 q 445 502 493 464 q 306 541 397 541 q 205 524 257 541 q 104 475 154 507 l 104 612 q 203 653 152 640 q 311 667 254 667 q 469 640 408 667 q 571 553 529 613 q 673 638 612 609 q 811 667 734 667 q 1054 577 967 667 q 1140 325 1140 487 l 1140 300 m 498 203 q 458 273 498 247 q 350 300 418 300 q 240 273 280 300 q 200 201 200 247 q 236 131 200 157 q 336 106 273 106 q 455 132 412 106 q 498 203 498 157 z "},"ø":{"ha":817,"x_min":47,"x_max":770,"o":"m 288 147 q 342 118 313 127 q 403 109 370 109 q 549 167 491 109 q 607 315 607 226 q 600 373 607 345 q 576 431 592 401 l 288 147 m 528 490 q 475 523 503 512 q 415 533 448 533 q 267 473 326 533 q 207 322 207 412 q 214 265 207 294 q 237 207 222 237 l 528 490 m 102 -36 l 47 20 l 132 106 q 74 208 93 156 q 56 318 56 260 q 157 568 56 469 q 412 667 258 667 q 530 647 476 667 q 628 590 585 628 l 713 676 l 770 623 l 684 534 q 742 431 723 484 q 761 321 761 379 q 659 73 761 172 q 403 -26 556 -26 q 287 -7 340 -26 q 191 49 233 12 l 102 -36 z "},"¿":{"ha":755,"x_min":131,"x_max":610,"o":"m 492 233 l 608 233 q 609 221 608 229 q 610 208 610 212 q 546 37 610 101 q 374 -26 481 -26 q 197 37 263 -26 q 131 207 131 101 q 169 334 131 284 q 322 440 208 385 l 336 447 q 471 574 471 514 q 444 633 471 608 q 380 659 418 659 q 310 631 335 659 q 284 553 286 604 l 164 553 l 164 567 q 220 722 164 667 q 380 777 277 777 q 539 720 477 777 q 602 576 602 663 q 558 444 602 496 q 390 330 515 391 q 283 265 307 292 q 260 201 260 239 q 292 126 260 156 q 374 97 324 97 q 460 133 429 97 q 492 233 492 170 m 482 928 q 456 865 482 891 q 393 839 429 839 q 330 865 355 839 q 304 928 304 890 q 330 990 304 964 q 393 1015 356 1015 q 456 990 431 1015 q 482 928 482 964 z "},"¡":{"ha":457,"x_min":139,"x_max":317,"o":"m 151 -26 l 151 762 l 306 762 l 306 -26 l 151 -26 m 139 928 q 165 990 139 964 q 228 1015 191 1015 q 291 990 265 1015 q 317 928 317 964 q 291 865 317 890 q 228 839 265 839 q 165 865 191 839 q 139 928 139 891 z "},"¬":{"ha":1157,"x_min":172,"x_max":985,"o":"m 172 585 l 985 585 l 985 244 l 872 244 l 872 472 l 172 472 l 172 585 z "},"√":{"ha":897,"x_min":45,"x_max":899,"o":"m 765 1136 l 899 1136 l 899 1061 l 825 1061 l 422 -28 l 367 -28 l 153 564 l 64 530 l 45 595 l 252 668 l 419 201 l 765 1136 z "},"ƒ":{"ha":839,"x_min":93,"x_max":701,"o":"m 492 530 l 427 17 q 354 -238 403 -172 q 200 -304 305 -304 q 149 -300 176 -304 q 93 -288 123 -296 l 121 -151 q 154 -161 139 -157 q 178 -165 168 -165 q 245 -131 224 -165 q 285 58 266 -96 l 342 530 l 200 530 l 210 643 l 353 643 l 367 747 q 435 942 385 880 q 578 1004 486 1004 q 637 999 607 1004 q 701 981 667 993 l 689 852 q 646 866 666 862 q 611 871 627 871 q 547 841 568 871 q 513 717 526 812 l 503 643 l 660 643 l 648 530 l 492 530 z "},"≈":{"ha":1157,"x_min":121,"x_max":1038,"o":"m 1038 401 l 1038 275 q 902 203 965 226 q 774 180 839 180 q 584 225 713 180 q 382 271 455 271 q 264 246 325 271 q 121 164 203 222 l 121 289 q 261 363 197 340 q 383 387 325 387 q 593 341 463 387 q 781 296 722 296 q 897 320 837 296 q 1038 401 958 345 m 1038 664 l 1038 539 q 901 466 964 488 q 774 443 838 443 q 585 489 714 443 q 382 534 456 534 q 267 511 326 534 q 121 428 207 487 l 121 553 q 260 627 195 602 q 383 652 325 652 q 593 606 465 652 q 775 559 722 559 q 898 583 838 559 q 1038 664 958 607 z "},"∆":{"ha":946,"x_min":-3,"x_max":949,"o":"m 473 811 l 216 144 l 729 144 l 473 811 m 386 999 l 559 999 l 949 0 l -3 0 l 386 999 z "},"«":{"ha":631,"x_min":54,"x_max":578,"o":"m 484 595 l 578 538 l 437 318 l 578 98 l 484 41 l 311 318 l 484 595 m 227 595 l 319 538 l 180 318 l 319 98 l 227 41 l 54 318 l 227 595 z "},"»":{"ha":631,"x_min":56,"x_max":578,"o":"m 406 41 l 311 98 l 452 318 l 311 538 l 406 595 l 578 318 l 406 41 m 149 41 l 56 98 l 195 318 l 56 538 l 149 595 l 321 318 l 149 41 z "},"…":{"ha":1389,"x_min":143,"x_max":1247,"o":"m 143 75 q 169 139 143 113 q 232 165 195 165 q 295 139 269 165 q 321 75 321 113 q 295 13 321 39 q 232 -12 269 -12 q 169 13 195 -12 q 143 75 143 39 m 606 75 q 631 139 606 113 q 694 165 657 165 q 758 139 732 165 q 783 75 783 113 q 758 13 783 39 q 694 -12 732 -12 q 631 13 657 -12 q 606 75 606 39 m 1069 75 q 1095 139 1069 113 q 1158 165 1121 165 q 1221 139 1196 165 q 1247 75 1247 113 q 1221 13 1247 39 q 1158 -12 1196 -12 q 1095 13 1121 -12 q 1069 75 1069 39 z "}," ":{"ha":839,"x_min":0,"x_max":0,"o":""},"À":{"ha":920,"x_min":-21,"x_max":940,"o":"m 323 390 l 600 390 l 498 616 q 480 666 490 638 q 461 729 471 694 q 444 668 453 696 q 425 616 435 640 l 323 390 m 770 0 l 657 256 l 264 256 l 149 0 l -21 0 l 460 1032 l 940 0 l 770 0 m 555 1090 l 472 1090 l 274 1275 l 427 1275 l 555 1090 z "},"Ã":{"ha":920,"x_min":-21,"x_max":940,"o":"m 323 390 l 600 390 l 498 616 q 480 666 490 638 q 461 729 471 694 q 444 668 453 696 q 425 616 435 640 l 323 390 m 770 0 l 657 256 l 264 256 l 149 0 l -21 0 l 460 1032 l 940 0 l 770 0 m 659 1259 q 611 1155 646 1192 q 526 1118 576 1118 q 509 1119 517 1118 q 490 1122 500 1120 l 406 1144 q 390 1147 395 1146 q 380 1147 385 1147 q 343 1137 357 1147 q 322 1101 330 1126 l 261 1101 q 308 1208 277 1173 q 389 1243 340 1243 q 410 1242 399 1243 q 431 1238 420 1240 l 510 1217 q 522 1215 515 1215 q 542 1214 529 1214 q 577 1226 563 1214 q 597 1259 591 1238 l 659 1259 z "},"Õ":{"ha":1203,"x_min":71,"x_max":1132,"o":"m 964 494 q 936 637 964 570 q 857 758 909 705 q 741 839 807 810 q 602 867 675 867 q 462 839 528 867 q 345 758 396 811 q 266 638 293 706 q 239 494 239 570 q 266 352 239 419 q 345 232 293 285 q 462 151 396 179 q 602 123 528 123 q 740 151 674 123 q 857 232 805 179 q 936 352 909 285 q 964 494 964 420 m 1132 494 q 1092 294 1132 389 q 977 126 1053 200 q 804 13 900 52 q 602 -26 707 -26 q 397 13 494 -26 q 225 126 300 53 q 110 294 149 200 q 71 494 71 387 q 110 695 71 601 q 225 864 149 789 q 397 977 301 938 q 602 1015 494 1015 q 805 977 709 1015 q 977 864 901 938 q 1092 694 1053 789 q 1132 494 1132 600 m 800 1259 q 753 1155 788 1192 q 668 1118 718 1118 q 650 1119 659 1118 q 632 1122 642 1120 l 548 1144 q 532 1147 537 1146 q 522 1147 526 1147 q 485 1137 498 1147 q 464 1101 471 1126 l 403 1101 q 450 1208 418 1173 q 531 1243 481 1243 q 552 1242 541 1243 q 572 1238 562 1240 l 652 1217 q 664 1215 657 1215 q 684 1214 671 1214 q 719 1226 705 1214 q 739 1259 733 1238 l 800 1259 z "},"Œ":{"ha":1563,"x_min":74,"x_max":1489,"o":"m 950 496 q 923 639 950 572 q 846 760 897 707 q 730 840 795 812 q 595 868 665 868 q 458 840 523 868 q 343 760 393 812 q 266 639 292 707 q 239 496 239 572 q 266 353 239 420 q 343 233 292 286 q 458 153 393 180 q 595 125 523 125 q 731 153 666 125 q 846 233 795 180 q 923 353 897 286 q 950 496 950 420 m 954 993 l 1489 993 l 1489 856 l 1103 856 l 1103 611 l 1489 611 l 1489 469 l 1103 469 l 1103 144 l 1489 144 l 1489 0 l 954 0 l 953 153 q 797 22 889 67 q 595 -24 705 -24 q 395 15 489 -24 q 227 127 300 54 q 113 296 152 202 q 74 496 74 391 q 113 695 74 601 q 227 864 152 789 q 395 977 300 938 q 595 1017 490 1017 q 792 974 703 1017 q 953 846 882 931 l 954 993 z "},"œ":{"ha":1318,"x_min":54,"x_max":1263,"o":"m 1109 399 q 1058 504 1101 468 q 937 541 1014 541 q 821 505 865 541 q 758 399 776 470 l 1109 399 m 673 100 q 551 4 615 35 q 411 -26 487 -26 q 317 -15 363 -26 q 232 21 272 -3 q 100 148 146 70 q 54 321 54 226 q 80 451 54 389 q 155 562 106 513 q 273 639 207 612 q 415 665 340 665 q 567 630 499 665 q 679 529 634 595 q 785 632 722 598 q 933 665 848 665 q 1176 576 1089 665 q 1263 328 1263 488 l 1263 300 l 749 300 q 802 157 754 209 q 930 106 850 106 q 1048 136 1000 106 q 1132 235 1096 167 l 1255 165 q 1122 21 1202 68 q 933 -26 1042 -26 q 784 4 846 -26 q 673 100 722 35 m 607 319 q 549 471 607 409 q 407 533 490 533 q 266 471 324 533 q 208 319 208 409 q 266 168 208 230 q 407 106 324 106 q 548 168 490 106 q 607 319 607 230 z "},"–":{"ha":694,"x_min":0,"x_max":694,"o":"m 0 370 l 694 370 l 694 271 l 0 271 l 0 370 z "},"—":{"ha":1389,"x_min":0,"x_max":1389,"o":"m 0 271 l 0 370 l 1389 370 l 1389 271 l 0 271 z "},"“":{"ha":614,"x_min":57,"x_max":557,"o":"m 310 985 l 182 615 l 57 657 l 224 1015 l 310 985 m 557 985 l 428 615 l 304 657 l 471 1015 l 557 985 z "},"”":{"ha":614,"x_min":57,"x_max":557,"o":"m 57 647 l 186 1015 l 310 975 l 143 615 l 57 647 m 304 647 l 433 1015 l 557 975 l 390 615 l 304 647 z "},"‘":{"ha":419,"x_min":83,"x_max":336,"o":"m 336 985 l 207 615 l 83 657 l 250 1015 l 336 985 z "},"’":{"ha":419,"x_min":83,"x_max":336,"o":"m 83 647 l 212 1015 l 336 975 l 170 615 l 83 647 z "},"÷":{"ha":1157,"x_min":172,"x_max":985,"o":"m 579 249 q 645 221 618 249 q 672 155 672 194 q 645 91 672 117 q 579 64 618 64 q 513 90 540 64 q 486 155 486 117 q 514 221 486 194 q 579 249 541 249 m 172 471 l 985 471 l 985 358 l 172 358 l 172 471 m 579 765 q 645 737 618 765 q 672 671 672 709 q 645 606 672 633 q 579 579 618 579 q 513 606 540 579 q 486 671 486 632 q 514 737 486 709 q 579 765 541 765 z "},"◊":{"ha":686,"x_min":4,"x_max":682,"o":"m 343 956 l 82 401 l 343 -158 l 604 401 l 343 956 m 343 1121 l 682 401 l 343 -323 l 4 401 l 343 1121 z "},"ÿ":{"ha":654,"x_min":1,"x_max":676,"o":"m 212 -302 l 61 -302 l 237 56 l 1 643 l 164 643 l 282 310 q 300 248 292 279 q 313 184 308 216 q 355 292 321 218 l 358 300 l 517 643 l 676 643 l 212 -302 m 369 851 q 393 908 369 884 q 451 932 418 932 q 508 908 484 932 q 532 851 532 885 q 509 792 532 815 q 451 768 486 768 q 393 792 416 768 q 369 851 369 816 m 122 851 q 146 908 122 884 q 204 932 171 932 q 261 908 237 932 q 285 851 285 885 q 262 792 285 815 q 204 768 239 768 q 146 792 170 768 q 122 851 122 816 z "},"Ÿ":{"ha":823,"x_min":-7,"x_max":829,"o":"m 328 0 l 328 454 l -7 993 l 163 993 l 371 656 q 390 622 378 643 q 412 576 401 601 q 432 621 422 600 q 454 660 443 642 l 668 993 l 829 993 l 488 454 l 488 0 l 328 0 m 454 1201 q 478 1258 454 1234 q 536 1282 503 1282 q 593 1258 569 1282 q 616 1201 616 1235 q 594 1142 616 1165 q 536 1118 571 1118 q 477 1142 501 1118 q 454 1201 454 1166 m 207 1201 q 231 1258 207 1234 q 289 1282 256 1282 q 346 1258 322 1282 q 370 1201 370 1235 q 347 1142 370 1165 q 289 1118 324 1118 q 231 1142 254 1118 q 207 1201 207 1166 z "},"∕":{"ha":232,"x_min":-232,"x_max":463,"o":"m -232 -26 l 370 1003 l 463 1003 l -139 -26 l -232 -26 z "},"¤":{"ha":842,"x_min":52,"x_max":793,"o":"m 422 798 q 283 739 341 798 q 225 600 225 681 q 282 461 225 519 q 422 404 340 404 q 562 461 505 404 q 619 600 619 519 q 561 739 619 681 q 422 798 503 798 m 114 970 l 252 832 q 331 874 289 860 q 421 888 373 888 q 512 874 469 888 q 591 832 555 860 l 729 970 l 793 907 l 654 768 q 694 689 681 732 q 708 600 708 647 q 694 510 708 553 q 654 432 681 468 l 793 293 l 729 231 l 591 370 q 511 328 553 341 q 422 314 470 314 q 331 328 374 314 q 252 370 288 342 l 114 231 l 52 293 l 189 432 q 149 510 162 468 q 135 600 135 553 q 149 689 135 647 q 189 768 162 732 l 52 907 l 114 970 z "},"‹":{"ha":425,"x_min":54,"x_max":321,"o":"m 227 595 l 321 538 l 180 318 l 321 98 l 227 41 l 54 318 l 227 595 z "},"›":{"ha":370,"x_min":54,"x_max":321,"o":"m 149 41 l 54 98 l 195 318 l 54 538 l 149 595 l 321 318 l 149 41 z "},"":{"ha":781,"x_min":9,"x_max":692,"o":"m 507 921 q 534 985 507 958 q 600 1013 562 1013 q 665 986 639 1013 q 692 921 692 960 q 665 855 692 882 q 600 828 639 828 q 534 856 562 828 q 507 921 507 883 m 525 0 l 525 643 l 673 643 l 673 0 l 525 0 m 122 0 l 122 514 l 9 514 l 9 643 l 122 643 l 122 815 q 175 1004 122 943 q 340 1065 229 1065 q 389 1062 364 1065 q 440 1051 414 1059 l 440 918 q 405 933 422 928 q 368 939 387 939 q 292 906 315 939 q 269 796 269 873 l 269 643 l 424 643 l 424 514 l 269 514 l 269 0 l 122 0 z "},"":{"ha":781,"x_min":9,"x_max":673,"o":"m 525 0 l 525 1051 l 673 1051 l 673 0 l 525 0 m 122 0 l 122 514 l 9 514 l 9 643 l 122 643 l 122 815 q 175 1004 122 943 q 340 1065 229 1065 q 389 1062 364 1065 q 440 1051 414 1059 l 440 918 q 405 933 422 928 q 368 939 387 939 q 292 906 315 939 q 269 796 269 873 l 269 643 l 424 643 l 424 514 l 269 514 l 269 0 l 122 0 z "},"‡":{"ha":739,"x_min":56,"x_max":684,"o":"m 300 -302 l 300 31 l 56 31 l 56 153 l 300 153 l 300 595 l 56 595 l 56 717 l 300 717 l 300 993 l 439 993 l 439 717 l 684 717 l 684 595 l 439 595 l 439 153 l 684 153 l 684 31 l 439 31 l 439 -302 l 300 -302 z "},"·":{"ha":419,"x_min":121,"x_max":298,"o":"m 121 489 q 146 552 121 526 q 210 578 172 578 q 273 552 248 578 q 298 489 298 526 q 273 426 298 452 q 210 400 247 400 q 147 426 173 400 q 121 489 121 452 z "},"‚":{"ha":419,"x_min":83,"x_max":336,"o":"m 83 -203 l 212 167 l 336 126 l 170 -233 l 83 -203 z "},"„":{"ha":614,"x_min":57,"x_max":557,"o":"m 57 -203 l 186 167 l 310 126 l 143 -233 l 57 -203 m 304 -203 l 433 167 l 557 126 l 390 -233 l 304 -203 z "},"‰":{"ha":1624,"x_min":39,"x_max":1585,"o":"m 1361 54 q 1437 100 1412 54 q 1463 236 1463 145 q 1437 370 1463 323 q 1364 416 1411 416 q 1288 371 1314 416 q 1263 235 1263 325 q 1288 101 1263 148 q 1361 54 1314 54 m 1141 236 q 1200 428 1141 359 q 1364 497 1259 497 q 1527 429 1469 497 q 1585 236 1585 361 q 1526 43 1585 113 q 1362 -26 1467 -26 q 1200 43 1258 -26 q 1141 236 1141 112 m 619 236 q 678 428 619 359 q 842 497 737 497 q 1005 429 947 497 q 1063 236 1063 361 q 1004 43 1063 113 q 840 -26 945 -26 q 677 43 736 -26 q 619 236 619 112 m 839 54 q 915 100 890 54 q 940 236 940 145 q 915 370 940 323 q 842 416 889 416 q 766 371 791 416 q 741 235 741 325 q 766 101 741 148 q 839 54 791 54 m 260 559 q 335 605 310 559 q 359 742 359 650 q 334 877 359 830 q 262 924 309 924 q 187 877 212 924 q 161 741 161 831 q 187 606 161 653 q 260 559 212 559 m 39 742 q 98 934 39 865 q 261 1003 157 1003 q 424 935 366 1003 q 482 742 482 867 q 424 549 482 618 q 261 481 366 481 q 97 549 156 481 q 39 742 39 618 m 309 -26 l 215 -26 l 794 1003 l 888 1003 l 309 -26 z "},"Â":{"ha":920,"x_min":-21,"x_max":940,"o":"m 323 390 l 600 390 l 498 616 q 480 666 490 638 q 461 729 471 694 q 444 668 453 696 q 425 616 435 640 l 323 390 m 770 0 l 657 256 l 264 256 l 149 0 l -21 0 l 460 1032 l 940 0 l 770 0 m 258 1090 l 389 1275 l 530 1275 l 661 1090 l 578 1090 l 460 1197 l 342 1090 l 258 1090 z "},"Ê":{"ha":739,"x_min":114,"x_max":668,"o":"m 114 0 l 114 993 l 668 993 l 668 856 l 275 856 l 275 607 l 668 607 l 668 465 l 275 465 l 275 144 l 668 144 l 668 0 l 114 0 m 192 1090 l 323 1275 l 464 1275 l 595 1090 l 511 1090 l 393 1197 l 275 1090 l 192 1090 z "},"Á":{"ha":920,"x_min":-21,"x_max":940,"o":"m 323 390 l 600 390 l 498 616 q 480 666 490 638 q 461 729 471 694 q 444 668 453 696 q 425 616 435 640 l 323 390 m 770 0 l 657 256 l 264 256 l 149 0 l -21 0 l 460 1032 l 940 0 l 770 0 m 364 1090 l 493 1275 l 646 1275 l 448 1090 l 364 1090 z "},"Ë":{"ha":739,"x_min":114,"x_max":668,"o":"m 114 0 l 114 993 l 668 993 l 668 856 l 275 856 l 275 607 l 668 607 l 668 465 l 275 465 l 275 144 l 668 144 l 668 0 l 114 0 m 435 1201 q 459 1258 435 1234 q 517 1282 484 1282 q 574 1258 550 1282 q 597 1201 597 1235 q 575 1142 597 1165 q 517 1118 552 1118 q 458 1142 482 1118 q 435 1201 435 1166 m 188 1201 q 212 1258 188 1234 q 270 1282 237 1282 q 327 1258 303 1282 q 351 1201 351 1235 q 328 1142 351 1165 q 270 1118 305 1118 q 212 1142 235 1118 q 188 1201 188 1166 z "},"È":{"ha":739,"x_min":114,"x_max":668,"o":"m 114 0 l 114 993 l 668 993 l 668 856 l 275 856 l 275 607 l 668 607 l 668 465 l 275 465 l 275 144 l 668 144 l 668 0 l 114 0 m 489 1090 l 406 1090 l 208 1275 l 360 1275 l 489 1090 z "},"Í":{"ha":396,"x_min":103,"x_max":385,"o":"m 117 0 l 117 993 l 278 993 l 278 0 l 117 0 m 103 1090 l 232 1275 l 385 1275 l 186 1090 l 103 1090 z "},"Î":{"ha":396,"x_min":-3,"x_max":400,"o":"m 117 0 l 117 993 l 278 993 l 278 0 l 117 0 m -3 1090 l 128 1275 l 269 1275 l 400 1090 l 317 1090 l 199 1197 l 81 1090 l -3 1090 z "},"Ï":{"ha":396,"x_min":-7,"x_max":403,"o":"m 117 0 l 117 993 l 278 993 l 278 0 l 117 0 m 240 1201 q 264 1258 240 1234 q 322 1282 289 1282 q 379 1258 355 1282 q 403 1201 403 1235 q 380 1142 403 1165 q 322 1118 357 1118 q 264 1142 288 1118 q 240 1201 240 1166 m -7 1201 q 18 1258 -7 1234 q 75 1282 42 1282 q 132 1258 109 1282 q 156 1201 156 1235 q 133 1142 156 1165 q 75 1118 111 1118 q 17 1142 41 1118 q -7 1201 -7 1166 z "},"Ì":{"ha":396,"x_min":13,"x_max":294,"o":"m 117 0 l 117 993 l 278 993 l 278 0 l 117 0 m 294 1090 l 211 1090 l 13 1275 l 165 1275 l 294 1090 z "},"Ó":{"ha":1203,"x_min":71,"x_max":1132,"o":"m 964 494 q 936 637 964 570 q 857 758 909 705 q 741 839 807 810 q 602 867 675 867 q 462 839 528 867 q 345 758 396 811 q 266 638 293 706 q 239 494 239 570 q 266 352 239 419 q 345 232 293 285 q 462 151 396 179 q 602 123 528 123 q 740 151 674 123 q 857 232 805 179 q 936 352 909 285 q 964 494 964 420 m 1132 494 q 1092 294 1132 389 q 977 126 1053 200 q 804 13 900 52 q 602 -26 707 -26 q 397 13 494 -26 q 225 126 300 53 q 110 294 149 200 q 71 494 71 387 q 110 695 71 601 q 225 864 149 789 q 397 977 301 938 q 602 1015 494 1015 q 805 977 709 1015 q 977 864 901 938 q 1092 694 1053 789 q 1132 494 1132 600 m 506 1090 l 635 1275 l 787 1275 l 589 1090 l 506 1090 z "},"Ô":{"ha":1203,"x_min":71,"x_max":1132,"o":"m 964 494 q 936 637 964 570 q 857 758 909 705 q 741 839 807 810 q 602 867 675 867 q 462 839 528 867 q 345 758 396 811 q 266 638 293 706 q 239 494 239 570 q 266 352 239 419 q 345 232 293 285 q 462 151 396 179 q 602 123 528 123 q 740 151 674 123 q 857 232 805 179 q 936 352 909 285 q 964 494 964 420 m 1132 494 q 1092 294 1132 389 q 977 126 1053 200 q 804 13 900 52 q 602 -26 707 -26 q 397 13 494 -26 q 225 126 300 53 q 110 294 149 200 q 71 494 71 387 q 110 695 71 601 q 225 864 149 789 q 397 977 301 938 q 602 1015 494 1015 q 805 977 709 1015 q 977 864 901 938 q 1092 694 1053 789 q 1132 494 1132 600 m 400 1090 l 531 1275 l 672 1275 l 803 1090 l 720 1090 l 602 1197 l 484 1090 l 400 1090 z "},"":{"ha":1097,"x_min":77,"x_max":1021,"o":"m 567 825 q 566 834 566 829 q 566 850 566 840 q 630 1005 566 934 q 790 1095 694 1077 q 791 1079 791 1088 q 791 1053 791 1070 q 721 893 791 964 q 583 823 651 823 l 578 823 q 573 824 576 823 q 567 825 570 825 m 1021 273 q 882 41 943 106 q 743 -24 820 -24 q 654 -1 709 -24 q 571 21 599 21 q 482 -1 541 21 q 396 -24 424 -24 q 309 6 353 -24 q 221 96 265 36 q 114 296 152 191 q 77 500 77 401 q 161 742 77 648 q 380 835 246 835 q 486 812 427 835 q 570 789 545 789 q 652 812 593 789 q 755 836 711 836 q 890 809 830 836 q 999 725 949 782 q 896 626 930 681 q 863 503 863 572 q 903 367 863 426 q 1021 273 944 308 z "},"Ò":{"ha":1203,"x_min":71,"x_max":1132,"o":"m 964 494 q 936 637 964 570 q 857 758 909 705 q 741 839 807 810 q 602 867 675 867 q 462 839 528 867 q 345 758 396 811 q 266 638 293 706 q 239 494 239 570 q 266 352 239 419 q 345 232 293 285 q 462 151 396 179 q 602 123 528 123 q 740 151 674 123 q 857 232 805 179 q 936 352 909 285 q 964 494 964 420 m 1132 494 q 1092 294 1132 389 q 977 126 1053 200 q 804 13 900 52 q 602 -26 707 -26 q 397 13 494 -26 q 225 126 300 53 q 110 294 149 200 q 71 494 71 387 q 110 695 71 601 q 225 864 149 789 q 397 977 301 938 q 602 1015 494 1015 q 805 977 709 1015 q 977 864 901 938 q 1092 694 1053 789 q 1132 494 1132 600 m 697 1090 l 614 1090 l 416 1275 l 568 1275 l 697 1090 z "},"Ú":{"ha":1034,"x_min":110,"x_max":925,"o":"m 110 993 l 269 993 l 269 390 q 331 188 269 256 q 517 121 393 121 q 702 188 640 121 q 764 390 764 256 l 764 993 l 925 993 l 925 375 q 823 74 925 174 q 517 -26 722 -26 q 211 73 312 -26 q 110 375 110 173 l 110 993 m 421 1090 l 550 1275 l 703 1275 l 505 1090 l 421 1090 z "},"Û":{"ha":1034,"x_min":110,"x_max":925,"o":"m 110 993 l 269 993 l 269 390 q 331 188 269 256 q 517 121 393 121 q 702 188 640 121 q 764 390 764 256 l 764 993 l 925 993 l 925 375 q 823 74 925 174 q 517 -26 722 -26 q 211 73 312 -26 q 110 375 110 173 l 110 993 m 315 1090 l 446 1275 l 587 1275 l 718 1090 l 635 1090 l 517 1197 l 399 1090 l 315 1090 z "},"Ù":{"ha":1034,"x_min":110,"x_max":925,"o":"m 110 993 l 269 993 l 269 390 q 331 188 269 256 q 517 121 393 121 q 702 188 640 121 q 764 390 764 256 l 764 993 l 925 993 l 925 375 q 823 74 925 174 q 517 -26 722 -26 q 211 73 312 -26 q 110 375 110 173 l 110 993 m 612 1090 l 529 1090 l 331 1275 l 484 1275 l 612 1090 z "},"ı":{"ha":364,"x_min":109,"x_max":256,"o":"m 109 0 l 109 643 l 256 643 l 256 0 l 109 0 z "},"ˆ":{"ha":694,"x_min":146,"x_max":549,"o":"m 146 741 l 277 925 l 418 925 l 549 741 l 465 741 l 347 847 l 229 741 l 146 741 z "},"˜":{"ha":694,"x_min":149,"x_max":546,"o":"m 546 909 q 499 805 534 842 q 414 768 464 768 q 396 769 405 768 q 378 772 387 770 l 294 794 q 277 797 283 796 q 268 798 272 798 q 231 787 244 798 q 210 751 217 776 l 149 751 q 196 858 164 823 q 277 893 227 893 q 297 892 287 893 q 318 888 308 890 l 397 867 q 410 865 403 865 q 429 864 416 864 q 465 876 450 864 q 485 909 479 888 l 546 909 z "},"¯":{"ha":694,"x_min":168,"x_max":525,"o":"m 168 782 l 168 878 l 525 878 l 525 782 l 168 782 z "},"˘":{"ha":694,"x_min":144,"x_max":547,"o":"m 144 922 l 227 922 q 262 858 233 878 q 347 838 291 838 q 432 858 403 838 q 467 922 460 878 l 547 922 q 489 786 536 829 q 347 743 441 743 q 204 787 253 743 q 144 922 155 830 z "},"˙":{"ha":694,"x_min":261,"x_max":433,"o":"m 261 851 q 287 911 261 886 q 347 937 313 937 q 408 912 382 937 q 433 851 433 887 q 409 789 433 814 q 347 765 385 765 q 286 790 311 765 q 261 851 261 815 z "},"˚":{"ha":694,"x_min":186,"x_max":509,"o":"m 271 871 q 293 816 271 838 q 347 794 315 794 q 402 817 379 794 q 425 871 425 840 q 402 926 425 903 q 347 949 380 949 q 293 926 315 949 q 271 871 271 903 m 186 871 q 233 985 186 938 q 347 1032 280 1032 q 461 985 414 1032 q 509 871 509 937 q 462 758 509 804 q 347 711 415 711 q 233 758 279 711 q 186 871 186 804 z "},"¸":{"ha":694,"x_min":186,"x_max":522,"o":"m 186 -267 l 186 -195 q 281 -214 241 -208 q 350 -220 321 -220 q 402 -208 385 -220 q 419 -174 419 -197 q 398 -135 419 -147 q 329 -123 376 -123 q 315 -124 324 -123 q 301 -125 307 -125 l 301 0 l 359 0 l 359 -58 l 371 -58 q 485 -88 447 -58 q 522 -176 522 -117 q 480 -263 522 -233 q 361 -293 439 -293 q 283 -287 328 -293 q 186 -267 239 -280 z "},"˝":{"ha":694,"x_min":207,"x_max":625,"o":"m 385 741 l 490 925 l 625 925 l 450 741 l 385 741 m 207 741 l 294 925 l 422 925 l 267 741 l 207 741 z "},"˛":{"ha":694,"x_min":236,"x_max":458,"o":"m 424 0 q 356 -75 377 -40 q 335 -144 335 -109 q 349 -186 335 -174 q 395 -199 362 -199 l 458 -199 l 458 -304 l 393 -304 q 274 -275 313 -304 q 236 -182 236 -245 q 267 -94 236 -138 q 364 0 298 -50 l 424 0 z "},"ˇ":{"ha":694,"x_min":146,"x_max":549,"o":"m 146 925 l 229 925 l 347 818 l 465 925 l 549 925 l 418 741 l 277 741 l 146 925 z "},"Ł":{"ha":663,"x_min":-45,"x_max":646,"o":"m 123 0 l 123 371 l 25 302 l -45 400 l 123 521 l 123 993 l 285 993 l 285 612 l 443 724 l 513 624 l 285 464 l 285 144 l 646 144 l 646 0 l 123 0 z "},"ł":{"ha":382,"x_min":-24,"x_max":407,"o":"m 117 0 l 117 378 l 41 325 l -24 421 l 117 521 l 117 1051 l 265 1051 l 265 611 l 340 664 l 407 568 l 265 468 l 265 0 l 117 0 z "},"Š":{"ha":762,"x_min":57,"x_max":700,"o":"m 57 199 l 186 258 q 253 157 204 192 q 378 122 302 122 q 492 162 450 122 q 534 269 534 202 q 389 425 534 357 q 358 440 369 435 q 139 585 194 520 q 85 743 85 650 q 167 940 85 865 q 383 1015 250 1015 q 567 973 493 1015 q 669 851 641 930 l 543 786 q 478 854 513 833 q 396 876 442 876 q 293 842 331 876 q 254 751 254 808 q 422 585 254 662 q 443 575 435 578 q 645 443 590 507 q 700 281 700 378 q 611 57 700 140 q 371 -26 522 -26 q 163 32 244 -26 q 57 199 82 90 m 180 1275 l 264 1275 l 382 1168 l 500 1275 l 583 1275 l 452 1090 l 311 1090 l 180 1275 z "},"š":{"ha":591,"x_min":28,"x_max":545,"o":"m 28 117 l 150 183 q 200 110 163 135 q 294 85 237 85 q 372 107 344 85 q 400 170 400 130 q 300 259 400 222 q 248 279 266 271 q 103 366 144 322 q 62 473 62 410 q 130 613 62 559 q 309 667 197 667 q 436 639 383 667 q 514 561 490 612 l 410 489 q 369 537 398 519 q 302 555 340 555 q 235 535 260 555 q 210 482 210 515 q 323 391 210 432 q 379 370 359 378 q 506 290 468 334 q 545 179 545 245 q 475 28 545 83 q 282 -26 405 -26 q 125 9 188 -26 q 28 117 63 44 m 94 925 l 178 925 l 296 818 l 414 925 l 497 925 l 366 741 l 225 741 l 94 925 z "},"Ž":{"ha":800,"x_min":12,"x_max":772,"o":"m 12 0 l 518 856 l 97 856 l 97 993 l 766 993 l 265 144 l 772 144 l 772 0 l 12 0 m 199 1275 l 282 1275 l 400 1168 l 518 1275 l 602 1275 l 471 1090 l 330 1090 l 199 1275 z "},"ž":{"ha":624,"x_min":-1,"x_max":596,"o":"m 596 0 l -1 0 l 357 514 l 35 514 l 35 643 l 596 643 l 245 129 l 596 129 l 596 0 m 111 925 l 195 925 l 313 818 l 431 925 l 514 925 l 383 741 l 242 741 l 111 925 z "},"¦":{"ha":694,"x_min":288,"x_max":408,"o":"m 288 277 l 408 277 l 408 -237 l 288 -237 l 288 277 m 288 971 l 408 971 l 408 457 l 288 457 l 288 971 z "},"Ð":{"ha":1038,"x_min":0,"x_max":966,"o":"m 285 146 l 421 146 q 588 161 532 146 q 686 211 644 176 q 771 331 743 259 q 799 497 799 402 q 771 664 799 592 q 686 783 743 735 q 585 833 644 819 q 401 848 526 848 l 343 848 l 285 848 l 285 615 l 547 615 l 547 490 l 285 490 l 285 146 m 123 0 l 123 490 l 0 490 l 0 615 l 123 615 l 123 993 l 342 993 q 640 971 553 993 q 791 900 726 950 q 922 731 878 834 q 966 496 966 628 q 922 261 966 363 q 791 93 878 159 q 644 21 727 43 q 385 0 560 0 l 342 0 l 123 0 z "},"ð":{"ha":817,"x_min":54,"x_max":762,"o":"m 607 300 q 549 438 607 381 q 408 494 492 494 q 267 438 324 494 q 210 300 210 382 q 268 162 210 219 q 408 106 326 106 q 549 163 490 106 q 607 300 607 220 m 586 551 q 510 681 553 625 q 418 777 468 738 l 221 685 l 180 764 l 343 839 q 280 883 315 861 q 183 939 245 905 l 257 1047 q 391 964 339 998 q 479 900 442 930 l 694 997 l 734 920 l 553 836 q 709 615 656 736 q 762 359 762 494 q 666 78 762 182 q 407 -26 570 -26 q 273 -1 337 -26 q 157 71 208 24 q 81 177 107 117 q 54 304 54 237 q 81 429 54 370 q 158 534 108 488 q 267 603 207 581 q 399 625 326 625 q 497 607 450 625 q 586 551 544 588 z "},"Ý":{"ha":823,"x_min":-7,"x_max":829,"o":"m 328 0 l 328 454 l -7 993 l 163 993 l 371 656 q 390 622 378 643 q 412 576 401 601 q 432 621 422 600 q 454 660 443 642 l 668 993 l 829 993 l 488 454 l 488 0 l 328 0 m 317 1090 l 446 1275 l 598 1275 l 400 1090 l 317 1090 z "},"ý":{"ha":654,"x_min":1,"x_max":676,"o":"m 212 -302 l 61 -302 l 237 56 l 1 643 l 164 643 l 282 310 q 300 248 292 279 q 313 184 308 216 q 355 292 321 218 l 358 300 l 517 643 l 676 643 l 212 -302 m 232 741 l 361 925 l 513 925 l 315 741 l 232 741 z "},"Þ":{"ha":739,"x_min":114,"x_max":707,"o":"m 265 374 l 317 374 q 496 403 451 374 q 541 505 541 432 q 493 617 541 585 q 317 650 445 650 l 265 650 l 265 374 m 265 241 l 265 0 l 114 0 l 114 993 l 265 993 l 265 789 l 343 789 q 516 777 463 789 q 607 737 568 765 q 680 645 654 703 q 707 515 707 586 q 680 385 707 445 q 607 292 654 326 q 518 253 569 264 q 358 241 467 241 l 326 241 l 265 241 z "},"þ":{"ha":808,"x_min":102,"x_max":754,"o":"m 244 323 q 294 164 244 224 q 425 104 344 104 q 554 160 509 104 q 600 318 600 216 q 552 477 600 420 q 421 534 505 534 q 291 479 338 534 q 244 323 244 423 m 249 83 l 249 -302 l 102 -302 l 102 1051 l 249 1051 l 249 538 q 331 632 275 599 q 467 665 388 665 q 674 571 595 665 q 754 322 754 476 q 676 67 754 160 q 461 -26 597 -26 q 341 1 393 -26 q 249 83 288 28 z "},"−":{"ha":1157,"x_min":172,"x_max":985,"o":"m 172 472 l 985 472 l 985 357 l 172 357 l 172 472 z "},"×":{"ha":1157,"x_min":195,"x_max":977,"o":"m 273 806 l 585 494 l 897 806 l 977 726 l 665 414 l 977 103 l 897 22 l 585 335 l 273 22 l 195 103 l 505 414 l 195 726 l 273 806 z "},"¹":{"ha":554,"x_min":107,"x_max":339,"o":"m 243 390 l 243 904 l 107 904 l 149 981 l 339 981 l 339 390 l 243 390 z "},"²":{"ha":554,"x_min":20,"x_max":458,"o":"m 458 468 l 458 390 l 20 390 l 264 657 q 330 745 309 707 q 351 814 351 783 q 323 883 351 858 q 244 908 294 908 q 170 883 199 908 q 138 817 141 859 l 35 817 q 94 944 35 897 q 253 991 153 991 q 402 947 348 991 q 457 827 457 903 q 426 719 457 773 q 293 555 395 664 l 208 468 l 458 468 z "},"³":{"ha":554,"x_min":41,"x_max":482,"o":"m 42 550 l 144 550 l 144 545 q 175 479 144 503 q 258 454 206 454 q 351 481 319 454 q 383 559 383 509 q 350 640 383 613 q 250 667 317 667 l 231 667 l 231 745 q 240 744 233 745 q 250 743 246 743 q 337 765 308 743 q 367 831 367 787 q 340 891 367 869 q 268 914 313 914 q 194 893 220 914 q 165 835 167 873 l 69 835 q 126 951 74 910 q 271 991 178 991 q 414 949 361 991 q 467 833 467 906 q 437 744 467 779 q 354 701 407 709 q 449 651 416 691 q 482 547 482 612 q 421 421 482 468 q 254 375 359 375 q 102 422 159 375 q 42 550 45 469 z "},"¼":{"ha":1289,"x_min":102,"x_max":1242,"o":"m 1075 375 l 917 176 l 1072 176 l 1072 321 q 1073 346 1072 332 q 1075 375 1074 360 m 1072 0 l 1072 113 l 772 113 l 1136 561 l 1165 561 l 1165 176 l 1242 176 l 1242 113 l 1165 113 l 1165 0 l 1072 0 m 297 -26 l 899 1003 l 991 1003 l 390 -26 l 297 -26 m 231 429 l 231 908 l 102 908 l 140 979 l 323 979 l 323 429 l 231 429 z "},"½":{"ha":1289,"x_min":102,"x_max":1198,"o":"m 1198 72 l 1198 0 l 779 0 l 1013 249 q 1077 331 1057 296 q 1097 395 1097 366 q 1070 460 1097 436 q 994 484 1042 484 q 924 460 951 484 q 893 397 897 437 l 794 397 q 851 516 794 472 q 1003 561 907 561 q 1145 520 1093 561 q 1197 407 1197 479 q 1166 303 1197 356 q 1040 154 1136 251 l 961 72 l 1198 72 m 297 -26 l 899 1003 l 991 1003 l 390 -26 l 297 -26 m 231 429 l 231 908 l 102 908 l 140 979 l 323 979 l 323 429 l 231 429 z "},"¾":{"ha":1289,"x_min":40,"x_max":1242,"o":"m 1075 375 l 917 176 l 1072 176 l 1072 321 q 1073 346 1072 332 q 1075 375 1074 360 m 1072 0 l 1072 113 l 772 113 l 1136 561 l 1165 561 l 1165 176 l 1242 176 l 1242 113 l 1165 113 l 1165 0 l 1072 0 m 297 -26 l 899 1003 l 991 1003 l 390 -26 l 297 -26 m 41 578 l 138 578 l 138 574 q 167 512 138 534 q 248 489 197 489 q 335 514 304 489 q 366 587 366 540 q 334 663 366 637 q 239 688 302 688 q 230 687 236 688 q 220 686 223 686 l 220 760 q 229 759 223 760 q 237 758 235 758 q 321 779 293 758 q 350 840 350 800 q 325 897 350 876 q 257 918 300 918 q 185 899 210 918 q 157 843 159 880 l 65 843 q 120 952 71 915 q 258 990 170 990 q 395 951 345 990 q 446 843 446 911 q 417 760 446 792 q 338 720 389 727 q 429 673 397 710 q 460 575 460 636 q 401 457 460 501 q 243 414 342 414 q 98 458 153 414 q 41 578 43 503 z "},"₣":{"ha":1240,"x_min":114,"x_max":1258,"o":"m 114 0 l 114 993 l 668 993 l 668 856 l 275 856 l 275 608 l 668 608 l 668 467 l 275 467 l 275 0 l 114 0 m 978 541 q 1041 635 1002 604 q 1137 665 1080 665 q 1199 658 1168 665 q 1258 636 1229 650 l 1205 511 q 1164 531 1186 525 q 1115 538 1142 538 q 1010 479 1042 538 q 978 282 978 420 l 978 0 l 831 0 l 831 644 l 978 644 l 978 541 z "},"Ğ":{"ha":1116,"x_min":71,"x_max":1060,"o":"m 664 509 l 1057 509 q 1058 480 1057 498 q 1060 415 1060 432 q 940 90 1060 205 q 602 -26 820 -26 q 384 9 479 -26 q 216 118 288 45 q 108 287 146 190 q 71 494 71 384 q 109 702 71 607 q 222 869 147 797 q 393 978 295 941 q 602 1015 490 1015 q 811 972 719 1015 q 977 842 904 930 l 859 753 q 745 840 808 811 q 604 868 682 868 q 341 765 443 868 q 239 496 239 661 q 341 223 239 328 q 606 118 443 118 q 823 182 744 118 q 903 358 903 247 l 903 372 l 664 372 l 664 509 m 355 1272 l 437 1272 q 473 1208 444 1228 q 558 1187 502 1187 q 643 1208 614 1187 q 677 1272 671 1228 l 758 1272 q 700 1136 747 1179 q 558 1093 652 1093 q 415 1137 464 1093 q 355 1272 366 1180 z "},"ğ":{"ha":808,"x_min":54,"x_max":707,"o":"m 564 323 q 517 479 564 423 q 387 534 471 534 q 256 477 304 534 q 208 318 208 420 q 254 160 208 216 q 385 104 300 104 q 514 165 464 104 q 564 323 564 225 m 707 40 q 631 -225 707 -149 q 378 -302 556 -302 q 165 -247 245 -302 q 85 -98 86 -191 l 243 -97 q 281 -160 246 -138 q 380 -182 317 -182 q 516 -140 475 -182 q 558 -2 557 -99 l 559 83 q 468 1 520 28 q 347 -26 415 -26 q 133 67 211 -26 q 54 322 54 160 q 134 571 54 476 q 343 665 214 665 q 478 632 422 665 q 559 538 534 600 l 559 643 l 707 643 l 707 40 m 201 922 l 283 922 q 319 858 290 878 q 404 838 348 838 q 489 858 460 838 q 524 922 517 878 l 604 922 q 546 786 593 829 q 404 743 498 743 q 261 787 310 743 q 201 922 212 830 z "},"İ":{"ha":396,"x_min":113,"x_max":285,"o":"m 117 0 l 117 993 l 278 993 l 278 0 l 117 0 m 113 1201 q 138 1261 113 1236 q 199 1287 164 1287 q 259 1262 234 1287 q 285 1201 285 1237 q 260 1139 285 1164 q 199 1115 236 1115 q 137 1140 162 1115 q 113 1201 113 1165 z "},"Ş":{"ha":762,"x_min":57,"x_max":700,"o":"m 57 199 l 186 258 q 253 157 204 192 q 378 122 302 122 q 492 162 450 122 q 534 269 534 202 q 389 425 534 357 q 358 440 369 435 q 139 585 194 520 q 85 743 85 650 q 167 940 85 865 q 383 1015 250 1015 q 567 973 493 1015 q 669 851 641 930 l 543 786 q 478 854 513 833 q 396 876 442 876 q 293 842 331 876 q 254 751 254 808 q 422 585 254 662 q 443 575 435 578 q 645 443 590 507 q 700 281 700 378 q 611 57 700 140 q 371 -26 522 -26 q 163 32 244 -26 q 57 199 82 90 m 229 -267 l 229 -195 q 323 -214 283 -208 q 393 -220 363 -220 q 445 -208 428 -220 q 462 -174 462 -197 q 440 -135 462 -147 q 372 -123 419 -123 q 358 -124 367 -123 q 344 -125 349 -125 l 344 0 l 402 0 l 402 -58 l 414 -58 q 527 -88 490 -58 q 565 -176 565 -117 q 523 -263 565 -233 q 404 -293 481 -293 q 326 -287 370 -293 q 229 -267 282 -280 z "},"ş":{"ha":591,"x_min":28,"x_max":545,"o":"m 28 117 l 150 183 q 200 110 163 135 q 294 85 237 85 q 372 107 344 85 q 400 170 400 130 q 300 259 400 222 q 248 279 266 271 q 103 366 144 322 q 62 473 62 410 q 130 613 62 559 q 309 667 197 667 q 436 639 383 667 q 514 561 490 612 l 410 489 q 369 537 398 519 q 302 555 340 555 q 235 535 260 555 q 210 482 210 515 q 323 391 210 432 q 379 370 359 378 q 506 290 468 334 q 545 179 545 245 q 475 28 545 83 q 282 -26 405 -26 q 125 9 188 -26 q 28 117 63 44 m 134 -267 l 134 -195 q 229 -214 189 -208 q 298 -220 269 -220 q 351 -208 334 -220 q 368 -174 368 -197 q 346 -135 368 -147 q 277 -123 325 -123 q 264 -124 273 -123 q 250 -125 255 -125 l 250 0 l 308 0 l 308 -58 l 319 -58 q 433 -88 395 -58 q 471 -176 471 -117 q 429 -263 471 -233 q 309 -293 387 -293 q 232 -287 276 -293 q 134 -267 188 -280 z "},"Ć":{"ha":997,"x_min":71,"x_max":920,"o":"m 911 751 q 766 839 842 810 q 606 868 690 868 q 341 764 443 868 q 239 493 239 659 q 338 228 239 332 q 589 123 437 123 q 756 155 677 123 q 909 249 836 186 l 909 66 q 768 -3 844 20 q 602 -26 691 -26 q 391 11 488 -26 q 221 121 294 48 q 110 289 149 192 q 71 494 71 385 q 110 700 71 604 q 222 868 149 795 q 392 979 296 941 q 599 1017 488 1017 q 766 991 686 1017 q 920 914 845 966 l 911 751 m 492 1090 l 621 1275 l 773 1275 l 575 1090 l 492 1090 z "},"ć":{"ha":631,"x_min":54,"x_max":582,"o":"m 582 460 q 503 517 548 497 q 406 536 458 536 q 261 478 315 536 q 207 323 207 420 q 261 166 207 223 q 412 109 316 109 q 508 129 466 109 q 582 189 550 149 l 582 20 q 495 -15 541 -3 q 396 -26 448 -26 q 150 70 245 -26 q 54 319 54 166 q 153 570 54 475 q 411 665 252 665 q 503 655 461 665 q 582 625 545 646 l 582 460 m 294 741 l 423 925 l 576 925 l 378 741 l 294 741 z "},"Č":{"ha":997,"x_min":71,"x_max":920,"o":"m 911 751 q 766 839 842 810 q 606 868 690 868 q 341 764 443 868 q 239 493 239 659 q 338 228 239 332 q 589 123 437 123 q 756 155 677 123 q 909 249 836 186 l 909 66 q 768 -3 844 20 q 602 -26 691 -26 q 391 11 488 -26 q 221 121 294 48 q 110 289 149 192 q 71 494 71 385 q 110 700 71 604 q 222 868 149 795 q 392 979 296 941 q 599 1017 488 1017 q 766 991 686 1017 q 920 914 845 966 l 911 751 m 386 1275 l 469 1275 l 587 1168 l 705 1275 l 789 1275 l 658 1090 l 517 1090 l 386 1275 z "},"č":{"ha":631,"x_min":54,"x_max":591,"o":"m 582 460 q 503 517 548 497 q 406 536 458 536 q 261 478 315 536 q 207 323 207 420 q 261 166 207 223 q 412 109 316 109 q 508 129 466 109 q 582 189 550 149 l 582 20 q 495 -15 541 -3 q 396 -26 448 -26 q 150 70 245 -26 q 54 319 54 166 q 153 570 54 475 q 411 665 252 665 q 503 655 461 665 q 582 625 545 646 l 582 460 m 189 925 l 272 925 l 390 818 l 508 925 l 591 925 l 460 741 l 319 741 l 189 925 z "},"đ":{"ha":821,"x_min":54,"x_max":821,"o":"m 564 323 q 517 479 564 424 q 387 534 471 534 q 256 477 304 534 q 208 318 208 419 q 255 160 208 216 q 385 104 301 104 q 514 164 465 104 q 564 323 564 224 m 559 793 l 332 793 l 332 903 l 559 903 l 559 1051 l 707 1051 l 707 903 l 821 903 l 821 793 l 707 793 l 707 0 l 559 0 l 559 83 q 468 1 521 28 q 347 -26 416 -26 q 133 66 212 -26 q 54 322 54 159 q 134 570 54 475 q 343 665 214 665 q 477 632 421 665 q 559 538 533 599 l 559 793 z "},"­":{"ha":562,"x_min":100,"x_max":463,"o":"m 100 387 l 463 387 l 463 252 l 100 252 l 100 387 z "},"∙":{"ha":419,"x_min":121,"x_max":298,"o":"m 121 489 q 146 552 121 526 q 210 578 172 578 q 273 552 248 578 q 298 489 298 526 q 273 426 298 452 q 210 400 247 400 q 147 426 173 400 q 121 489 121 452 z "}}}
